0
SECTION
2
HEADER
9
$INSUNITS
70
4
9
$ACADVER
1
AC1014
9
$HANDSEED
5
FFFF
0
ENDSEC
0
SECTION
2
TABLES
0
TABLE
2
VPORT
5
8
100
AcDbSymbolTable
0
ENDTAB
0
TABLE
2
LTYPE
5
5
100
AcDbSymbolTable
0
LTYPE
5
14
100
AcDbSymbolTableRecord
100
AcDbLinetypeTableRecord
2
BYBLOCK
70
0
0
LTYPE
5
15
100
AcDbSymbolTableRecord
100
AcDbLinetypeTableRecord
2
BYLAYER
70
0
0
ENDTAB
0
TABLE
2
LAYER
5
2
100
AcDbSymbolTable
70
2
0
LAYER
5
50
100
AcDbSymbolTableRecord
100
AcDbLayerTableRecord
2
0
70
0
6
CONTINUOUS
0
ENDTAB
0
TABLE
2
STYLE
5
3
100
AcDbSymbolTable
70
1
0
STYLE
5
11
100
AcDbSymbolTableRecord
100
AcDbTextStyleTableRecord
2
STANDARD
70
0
0
ENDTAB
0
TABLE
2
VIEW
5
6
100
AcDbSymbolTable
70
0
0
ENDTAB
0
TABLE
2
UCS
5
7
100
AcDbSymbolTable
70
0
0
ENDTAB
0
TABLE
2
APPID
5
9
100
AcDbSymbolTable
70
2
0
APPID
5
12
100
AcDbSymbolTableRecord
100
AcDbRegAppTableRecord
2
ACAD
70
0
0
ENDTAB
0
TABLE
2
DIMSTYLE
5
A
100
AcDbSymbolTable
70
1
0
ENDTAB
0
TABLE
2
BLOCK_RECORD
5
1
100
AcDbSymbolTable
70
1
0
BLOCK_RECORD
5
1F
100
AcDbSymbolTableRecord
100
AcDbBlockTableRecord
2
*MODEL_SPACE
0
BLOCK_RECORD
5
1B
100
AcDbSymbolTableRecord
100
AcDbBlockTableRecord
2
*PAPER_SPACE
0
ENDTAB
0
ENDSEC
0
SECTION
2
BLOCKS
0
BLOCK
5
20
100
AcDbEntity
100
AcDbBlockBegin
2
*MODEL_SPACE
0
ENDBLK
5
21
100
AcDbEntity
100
AcDbBlockEnd
0
BLOCK
5
1C
100
AcDbEntity
100
AcDbBlockBegin
2
*PAPER_SPACE
0
ENDBLK
5
1D
100
AcDbEntity
100
AcDbBlockEnd
0
ENDSEC
0
SECTION
2
ENTITIES
0
ARC
5
100
100
AcDbEntity
8
0
100
AcDbCircle
10
-11.999999999999995
20
-40.510029622304636
30
0
40
1.9999999999999996
210
0
220
0
230
1
100
AcDbArc
50
-106.50049741045974
51
0
0
ARC
5
101
100
AcDbEntity
8
0
100
AcDbCircle
10
-4.8849813083506888e-14
20
-6.6613381477509392e-14
30
0
40
44.249999999999915
210
0
220
0
230
1
100
AcDbArc
50
207.56060310526317
51
253.49950258954024
0
ARC
5
102
100
AcDbEntity
8
0
100
AcDbCircle
10
-43.996361975496129
20
-23.224612653844552
30
0
40
6.0000000000000009
210
0
220
0
230
1
100
AcDbArc
50
95.272588798933995
51
207.82848672728966
0
ARC
5
103
100
AcDbEntity
8
0
100
AcDbCircle
10
-4.8849813083506888e-14
20
-6.6613381477509392e-14
30
0
40
55.749999999999915
210
0
220
0
230
1
100
AcDbArc
50
207.82848672728966
51
332.13844668707412
0
ARC
5
104
100
AcDbEntity
8
0
100
AcDbCircle
10
44.562350849253036
20
-23.221959150512607
30
0
40
5.9999999999999947
210
0
220
0
230
1
100
AcDbArc
50
95.541494056903332
51
152.4754561668521
0
ARC
5
105
100
AcDbEntity
8
0
100
AcDbCircle
10
-4.8849813083506888e-14
20
-6.6613381477509392e-14
30
0
40
44.249999999999943
210
0
220
0
230
1
100
AcDbArc
50
286.50049741045984
51
332.4754561668521
0
ARC
5
106
100
AcDbEntity
8
0
100
AcDbCircle
10
12.000000000000011
20
-40.510029622304636
30
0
40
1.9999999999999996
210
0
220
0
230
1
100
AcDbArc
50
180
51
286.5004974104591
0
CIRCLE
5
107
100
AcDbEntity
8
0
100
AcDbCircle
10
7.0000000000000426
20
-39.999999999999922
30
0
40
1.6000000000000003
210
0
220
-0
230
1
0
CIRCLE
5
108
100
AcDbEntity
8
0
100
AcDbCircle
10
-6.9999999999999982
20
-39.999999999999993
30
0
40
1.6000000000000003
210
0
220
-0
230
1
0
CIRCLE
5
109
100
AcDbEntity
8
0
100
AcDbCircle
10
-4.8849813083506888e-14
20
-6.6613381477509392e-14
30
0
40
50.25
210
0
220
0
230
1
0
LINE
5
110
100
AcDbEntity
8
0
100
AcDbLine
10
-4.8849813083506888e-14
20
-6.6613381477509392e-14
30
0
11
-6.3134440052372041
21
-65.567622937606416
31
0
0
LINE
5
111
100
AcDbEntity
8
0
100
AcDbLine
10
-4.8849813083506888e-14
20
-6.6613381477509392e-14
30
0
11
7.7715611723760958e-15
21
-65.160426124552274
31
0
0
LINE
5
112
100
AcDbEntity
8
0
100
AcDbLine
10
-4.8849813083506888e-14
20
-6.6613381477509392e-14
30
0
11
-18.708340518668297
21
-63.158299121595654
31
0
0
LINE
5
113
100
AcDbEntity
8
0
100
AcDbLine
10
-4.8849813083506888e-14
20
-6.6613381477509392e-14
30
0
11
-30.415787215403135
21
-58.428183618547621
31
0
0
LINE
5
114
100
AcDbEntity
8
0
100
AcDbLine
10
-4.8849813083506888e-14
20
-6.6613381477509392e-14
30
0
11
-41.005586554531007
21
-51.551087517280017
31
0
0
LINE
5
115
100
AcDbEntity
8
0
100
AcDbLine
10
-4.8849813083506888e-14
20
-6.6613381477509392e-14
30
0
11
-50.088609654884181
21
-42.779714067955624
31
0
0
LINE
5
116
100
AcDbEntity
8
0
100
AcDbLine
10
-4.8849813083506888e-14
20
-6.6613381477509392e-14
30
0
11
-57.331095082135874
21
-32.436372941167335
31
0
0
LINE
5
117
100
AcDbEntity
8
0
100
AcDbLine
10
-4.8849813083506888e-14
20
-6.6613381477509392e-14
30
0
11
6.31344400523722
21
-65.567622937606401
31
0
0
LINE
5
118
100
AcDbEntity
8
0
100
AcDbLine
10
-4.8849813083506888e-14
20
-6.6613381477509392e-14
30
0
11
18.708340518668308
21
-63.158299121595633
31
0
0
LINE
5
119
100
AcDbEntity
8
0
100
AcDbLine
10
-4.8849813083506888e-14
20
-6.6613381477509392e-14
30
0
11
30.415787215403135
21
-58.428183618547571
31
0
0
LINE
5
120
100
AcDbEntity
8
0
100
AcDbLine
10
-4.8849813083506888e-14
20
-6.6613381477509392e-14
30
0
11
41.005586554530993
21
-51.551087517279953
31
0
0
LINE
5
121
100
AcDbEntity
8
0
100
AcDbLine
10
-4.8849813083506888e-14
20
-6.6613381477509392e-14
30
0
11
50.088609654884152
21
-42.779714067955545
31
0
0
LINE
5
122
100
AcDbEntity
8
0
100
AcDbLine
10
-4.8849813083506888e-14
20
-6.6613381477509392e-14
30
0
11
57.331095082135818
21
-32.436372941167242
31
0
0
CIRCLE
5
123
100
AcDbEntity
8
0
100
AcDbCircle
10
-4.8849813083506888e-14
20
-6.6613381477509392e-14
30
0
40
52.75
210
0
220
0
230
1
0
CIRCLE
5
124
100
AcDbEntity
8
0
100
AcDbCircle
10
-4.8849813083506888e-14
20
-6.6613381477509392e-14
30
0
40
47.75
210
0
220
0
230
1
0
ARC
5
125
100
AcDbEntity
8
0
100
AcDbCircle
10
-44.547727214752456
20
-23.249999999999979
30
0
40
5.999999999999968
210
0
220
-0
230
1
100
AcDbArc
50
27.560603105263052
51
90.000000000000199
0
ARC
5
126
100
AcDbEntity
8
0
100
AcDbCircle
10
43.982951242498494
20
-23.249999999999989
30
0
40
6.0000000000000044
210
0
220
0
230
1
100
AcDbArc
50
-27.861553312925981
51
90
0
LINE
5
127
100
AcDbEntity
8
0
100
AcDbLine
10
7.0000000000000089
20
-37
30
0
11
-6.9999999999999911
21
-36.999999999999993
31
0
0
LINE
5
128
100
AcDbEntity
8
0
100
AcDbLine
10
-9.9999999999999929
20
-39.999999999999993
30
0
11
-9.9999999999999911
21
-40.510029622304636
31
0
0
LINE
5
129
100
AcDbEntity
8
0
100
AcDbLine
10
10.000000000000011
20
-40.510029622304636
30
0
11
10.000000000000009
21
-39.999999999999993
31
0
0
ARC
5
130
100
AcDbEntity
8
0
100
AcDbCircle
10
-6.9999999999999911
20
-39.999999999999993
30
0
40
3.0000000000000027
210
0
220
-0
230
1
100
AcDbArc
50
90
51
180
0
ARC
5
131
100
AcDbEntity
8
0
100
AcDbCircle
10
7.0000000000000089
20
-39.999999999999993
30
0
40
3.0000000000000004
210
0
220
-0
230
1
100
AcDbArc
50
0
51
90
0
ENDSEC
0
SECTION
2
OBJECTS
0
DICTIONARY
5
C
100
AcDbDictionary
3
ACAD_GROUP
350
D
3
ACAD_MLINESTYLE
350
17
0
DICTIONARY
5
D
100
AcDbDictionary
0
DICTIONARY
5
1A
330
C
100
AcDbDictionary
0
DICTIONARY
5
17
100
AcDbDictionary
0
ENDSEC
0
EOF
