%TF.GenerationSoftware,KiCad,Pcbnew,(6.0.4)*%
%TF.CreationDate,2022-09-17T01:55:58+09:00*%
%TF.ProjectId,robotrace_v1_Linesensor,726f626f-7472-4616-9365-5f76315f4c69,rev?*%
%TF.SameCoordinates,Original*%
%TF.FileFunction,Soldermask,Top*%
%TF.FilePolarity,Negative*%
%FSLAX46Y46*%
G04 Gerber Fmt 4.6, Leading zero omitted, Abs format (unit mm)*
G04 Created by KiCad (PCBNEW (6.0.4)) date 2022-09-17 01:55:58*
%MOMM*%
%LPD*%
G01*
G04 APERTURE LIST*
G04 Aperture macros list*
%AMRoundRect*
0 Rectangle with rounded corners*
0 $1 Rounding radius*
0 $2 $3 $4 $5 $6 $7 $8 $9 X,Y pos of 4 corners*
0 Add a 4 corners polygon primitive as box body*
4,1,4,$2,$3,$4,$5,$6,$7,$8,$9,$2,$3,0*
0 Add four circle primitives for the rounded corners*
1,1,$1+$1,$2,$3*
1,1,$1+$1,$4,$5*
1,1,$1+$1,$6,$7*
1,1,$1+$1,$8,$9*
0 Add four rect primitives between the rounded corners*
20,1,$1+$1,$2,$3,$4,$5,0*
20,1,$1+$1,$4,$5,$6,$7,0*
20,1,$1+$1,$6,$7,$8,$9,0*
20,1,$1+$1,$8,$9,$2,$3,0*%
G04 Aperture macros list end*
%ADD10RoundRect,0.237500X-0.035858X-0.342958X0.344345X-0.018234X0.035858X0.342958X-0.344345X0.018234X0*%
%ADD11RoundRect,0.237500X0.030241X-0.343499X0.341498X0.047805X-0.030241X0.343499X-0.341498X-0.047805X0*%
%ADD12RoundRect,0.237500X0.156716X-0.307159X0.298724X0.172251X-0.156716X0.307159X-0.298724X-0.172251X0*%
%ADD13RoundRect,0.237500X0.212445X-0.271612X0.260368X0.226086X-0.212445X0.271612X-0.260368X-0.226086X0*%
%ADD14R,0.300000X1.300000*%
%ADD15R,1.600000X1.600000*%
%ADD16RoundRect,0.155000X0.212500X0.155000X-0.212500X0.155000X-0.212500X-0.155000X0.212500X-0.155000X0*%
%ADD17RoundRect,0.237500X0.298724X-0.172251X0.156716X0.307159X-0.298724X0.172251X-0.156716X-0.307159X0*%
%ADD18RoundRect,0.237500X0.344345X0.018234X-0.035858X0.342958X-0.344345X-0.018234X0.035858X-0.342958X0*%
%ADD19RoundRect,0.237500X-0.100638X-0.329815X0.334540X-0.083604X0.100638X0.329815X-0.334540X0.083604X0*%
%ADD20RoundRect,0.237500X0.341498X-0.047805X0.030241X0.343499X-0.341498X0.047805X-0.030241X-0.343499X0*%
%ADD21RoundRect,0.237500X0.334540X0.083604X-0.100638X0.329815X-0.334540X-0.083604X0.100638X-0.329815X0*%
%ADD22RoundRect,0.237500X0.326102X-0.112087X0.095228X0.331418X-0.326102X0.112087X-0.095228X-0.331418X0*%
%ADD23RoundRect,0.237500X0.095228X-0.331418X0.326102X0.112087X-0.095228X0.331418X-0.326102X-0.112087X0*%
%ADD24RoundRect,0.237500X0.260368X-0.226086X0.212445X0.271612X-0.260368X0.226086X-0.212445X-0.271612X0*%
G04 APERTURE END LIST*
D10*
%TO.C,R5*%
X184606130Y-60692621D03*
X185993870Y-59507379D03*
%TD*%
D11*
%TO.C,R8*%
X178231955Y-53514130D03*
X179368045Y-52085870D03*
%TD*%
D12*
%TO.C,R12*%
X162240836Y-43874923D03*
X162759164Y-42125077D03*
%TD*%
D13*
%TO.C,R14*%
X153012541Y-41408299D03*
X153187459Y-39591701D03*
%TD*%
D14*
%TO.C,J1*%
X141250000Y-39650000D03*
X141750000Y-39650000D03*
X142250000Y-39650000D03*
X142750000Y-39650000D03*
X143250000Y-39650000D03*
X143750000Y-39650000D03*
X144250000Y-39650000D03*
X144750000Y-39650000D03*
X145250000Y-39650000D03*
X145750000Y-39650000D03*
X146250000Y-39650000D03*
X146750000Y-39650000D03*
X147250000Y-39650000D03*
X147750000Y-39650000D03*
X148250000Y-39650000D03*
X148750000Y-39650000D03*
D15*
X138650000Y-42900000D03*
X151350000Y-42900000D03*
%TD*%
D16*
%TO.C,C1*%
X145567500Y-37400000D03*
X144432500Y-37400000D03*
%TD*%
D17*
%TO.C,R11*%
X128159164Y-43624923D03*
X127640836Y-41875077D03*
%TD*%
D18*
%TO.C,R4*%
X105593870Y-60292621D03*
X104206130Y-59107379D03*
%TD*%
D19*
%TO.C,R2*%
X189505800Y-68849336D03*
X191094200Y-67950664D03*
%TD*%
D20*
%TO.C,R7*%
X111968045Y-53464130D03*
X110831955Y-52035870D03*
%TD*%
D21*
%TO.C,R1*%
X100594200Y-68449336D03*
X99005800Y-67550664D03*
%TD*%
D22*
%TO.C,R9*%
X119621346Y-47809397D03*
X118778654Y-46190603D03*
%TD*%
D23*
%TO.C,R10*%
X170778654Y-47909397D03*
X171621346Y-46290603D03*
%TD*%
D24*
%TO.C,R13*%
X137087459Y-41158299D03*
X136912541Y-39341701D03*
%TD*%
M02*
