M48
INCH,TZ
T1C0.0157
%
G90
G05
T1
X39685Y-24291
X40276Y-26929
X42165Y-21181
X42165Y-23937
X44567Y-21378
X45079Y-18622
X47638Y-19134
X48425Y-16654
X50906Y-17638
X52165Y-15354
X53110Y-15197
X53669Y-16929
X54823Y-17992
X55039Y-16063
X55217Y-17992
X55610Y-17992
X56004Y-17992
X56201Y-14803
X56398Y-17992
X56791Y-17992
X57283Y-17992
X57677Y-17992
X58071Y-17992
X58346Y-14825
X58465Y-17992
X58858Y-17992
X59252Y-17992
X60167Y-16841
X60335Y-15059
X61614Y-17165
X64272Y-16043
X64961Y-18346
X67835Y-17795
X68031Y-20118
X70709Y-22441
X70984Y-20118
X72913Y-25315
X73622Y-23031
X75689Y-26476
T0
M30
