%TF.GenerationSoftware,KiCad,Pcbnew,(6.0.4)*%
%TF.CreationDate,2022-08-25T18:27:48+09:00*%
%TF.ProjectId,total,746f7461-6c2e-46b6-9963-61645f706362,rev?*%
%TF.SameCoordinates,Original*%
%TF.FileFunction,Profile,NP*%
%FSLAX46Y46*%
G04 Gerber Fmt 4.6, Leading zero omitted, Abs format (unit mm)*
G04 Created by KiCad (PCBNEW (6.0.4)) date 2022-08-25 18:27:48*
%MOMM*%
%LPD*%
G01*
G04 APERTURE LIST*
%TA.AperFunction,Profile*%
%ADD10C,0.200000*%
%TD*%
G04 APERTURE END LIST*
D10*
X141267661Y-68574333D02*
X140999877Y-68574333D01*
X145465475Y-72576030D02*
X144767661Y-72576030D01*
X142017661Y-71824333D02*
X142017661Y-69324333D01*
X144015964Y-71824333D02*
X144017661Y-69324333D01*
X141267661Y-72574333D02*
G75*
G03*
X142017661Y-71824333I0J750000D01*
G01*
X144015961Y-71824333D02*
G75*
G03*
X144767661Y-72576030I751700J3D01*
G01*
X142017661Y-69324333D02*
G75*
G03*
X141267661Y-68574333I-750000J0D01*
G01*
X144767661Y-68574333D02*
G75*
G03*
X144017661Y-69324333I0J-750000D01*
G01*
X154515964Y-72577727D02*
X158465475Y-72577727D01*
X154999877Y-68576028D02*
X154515964Y-68576028D01*
X151015964Y-72576030D02*
G75*
G03*
X151765964Y-71826030I0J750000D01*
G01*
X153764267Y-71826030D02*
G75*
G03*
X154515964Y-72577727I751697J0D01*
G01*
X154515964Y-68576030D02*
G75*
G03*
X153765964Y-69326030I0J-750000D01*
G01*
X151765964Y-69326030D02*
G75*
G03*
X151015964Y-68576030I-750000J0D01*
G01*
X153764267Y-71826030D02*
X153765964Y-69326030D01*
X151765964Y-71826030D02*
X151765964Y-69326030D01*
X159465475Y-96576030D02*
X159465475Y-73576030D01*
X158465475Y-97576030D02*
G75*
G03*
X159465475Y-96576030I0J1000000D01*
G01*
X149465475Y-73576030D02*
X149465475Y-96576030D01*
X151015964Y-72576030D02*
X150465475Y-72576030D01*
X159465475Y-73576030D02*
G75*
G03*
X158465475Y-72576030I-1000000J0D01*
G01*
X150465475Y-97576030D02*
X158465475Y-97576030D01*
X149465475Y-96576030D02*
G75*
G03*
X150465475Y-97576030I1000000J0D01*
G01*
X150465475Y-72576030D02*
G75*
G03*
X149465475Y-73576030I0J-1000000D01*
G01*
X146465475Y-73576030D02*
G75*
G03*
X145465475Y-72576030I-1000000J0D01*
G01*
X136465475Y-73576030D02*
X136465475Y-96576030D01*
X137465475Y-72576030D02*
G75*
G03*
X136465475Y-73576030I0J-1000000D01*
G01*
X137465475Y-97576030D02*
X145465475Y-97576030D01*
X141267661Y-72574333D02*
X137465475Y-72576030D01*
X145465475Y-97576030D02*
G75*
G03*
X146465475Y-96576030I0J1000000D01*
G01*
X146465475Y-96576030D02*
X146465475Y-73576030D01*
X136465475Y-96576030D02*
G75*
G03*
X137465475Y-97576030I1000000J0D01*
G01*
X160567929Y-63148346D02*
G75*
G03*
X157999877Y-65065998I-568029J-1917664D01*
G01*
X104016930Y-88326070D02*
G75*
G03*
X108758404Y-85126840I-579430J5971960D01*
G01*
X137999917Y-65065998D02*
G75*
G03*
X135431830Y-63148364I-2000017J-12D01*
G01*
X187228461Y-85102153D02*
G75*
G03*
X192547604Y-88326028I5319139J2776143D01*
G01*
X187228477Y-85102145D02*
G75*
G03*
X160567924Y-63148364I-39228577J-20473865D01*
G01*
X144767661Y-68574333D02*
X151015964Y-68576030D01*
X157999877Y-65576028D02*
X157999877Y-65065998D01*
X98712535Y-79522054D02*
G75*
G03*
X104016926Y-88326028I5304365J-2804056D01*
G01*
X192547606Y-88326051D02*
G75*
G03*
X197302333Y-79550457I-551406J5974641D01*
G01*
X135431830Y-63148363D02*
G75*
G03*
X108758404Y-85126840I12568050J-42427667D01*
G01*
X137999882Y-65576028D02*
G75*
G03*
X140999877Y-68576028I3000018J18D01*
G01*
X142599877Y-65576028D02*
G75*
G03*
X142599877Y-65576028I-1600000J0D01*
G01*
X137999877Y-65065998D02*
X137999877Y-65576028D01*
X156599877Y-65576028D02*
G75*
G03*
X156599877Y-65576028I-1600000J0D01*
G01*
X154999877Y-68575987D02*
G75*
G03*
X157999877Y-65576028I23J2999977D01*
G01*
X197302333Y-79550457D02*
G75*
G03*
X98712449Y-79522008I-49302456J-26025571D01*
G01*
M02*
