M48
INCH,TZ
T1C0.0157
T2C0.0394
%
G90
G05
T1
X40866Y-30424
X41457Y-33061
X43346Y-27313
X43346Y-30069
X45748Y-27510
X46260Y-24754
X48819Y-25266
X49606Y-22786
X52087Y-23770
X53346Y-21487
X54291Y-21329
X54809Y-33002
X54850Y-23061
X56004Y-24125
X56398Y-24125
X56791Y-24125
X57185Y-24124
X57382Y-20994
X57579Y-24124
X57972Y-24124
X58465Y-24124
X58858Y-24124
X59252Y-24124
X59646Y-24124
X59744Y-22490
X59927Y-33002
X60039Y-24124
X60433Y-24124
X61348Y-22973
X61516Y-21191
X62795Y-23298
X65453Y-22176
X66142Y-24479
X69016Y-23928
X69213Y-26250
X71890Y-28573
X72165Y-26250
X74094Y-31447
X74803Y-29164
X76870Y-32609
T2
X55195Y-29607
X55195Y-31870
X56195Y-29607
X56195Y-31870
X60313Y-29607
X60313Y-31870
X61313Y-29607
X61313Y-31870
T0
M30
