%TF.GenerationSoftware,KiCad,Pcbnew,(6.0.4)*%
%TF.CreationDate,2022-08-25T18:27:48+09:00*%
%TF.ProjectId,total,746f7461-6c2e-46b6-9963-61645f706362,rev?*%
%TF.SameCoordinates,Original*%
%TF.FileFunction,Legend,Bot*%
%TF.FilePolarity,Positive*%
%FSLAX46Y46*%
G04 Gerber Fmt 4.6, Leading zero omitted, Abs format (unit mm)*
G04 Created by KiCad (PCBNEW (6.0.4)) date 2022-08-25 18:27:48*
%MOMM*%
%LPD*%
G01*
G04 APERTURE LIST*
%ADD10C,0.150000*%
%ADD11C,0.120000*%
G04 APERTURE END LIST*
D10*
%TO.C,D3*%
X155203570Y-85778410D02*
X155203570Y-84778410D01*
X154965475Y-84778410D01*
X154822617Y-84826030D01*
X154727379Y-84921268D01*
X154679760Y-85016506D01*
X154632141Y-85206982D01*
X154632141Y-85349839D01*
X154679760Y-85540315D01*
X154727379Y-85635553D01*
X154822617Y-85730791D01*
X154965475Y-85778410D01*
X155203570Y-85778410D01*
X154298808Y-84778410D02*
X153679760Y-84778410D01*
X154013094Y-85159363D01*
X153870236Y-85159363D01*
X153774998Y-85206982D01*
X153727379Y-85254601D01*
X153679760Y-85349839D01*
X153679760Y-85587934D01*
X153727379Y-85683172D01*
X153774998Y-85730791D01*
X153870236Y-85778410D01*
X154155951Y-85778410D01*
X154251189Y-85730791D01*
X154298808Y-85683172D01*
%TO.C,U2*%
X154687855Y-77314125D02*
X155497379Y-77314125D01*
X155592617Y-77361744D01*
X155640236Y-77409363D01*
X155687855Y-77504601D01*
X155687855Y-77695077D01*
X155640236Y-77790315D01*
X155592617Y-77837934D01*
X155497379Y-77885553D01*
X154687855Y-77885553D01*
X154783094Y-78314125D02*
X154735475Y-78361744D01*
X154687855Y-78456982D01*
X154687855Y-78695077D01*
X154735475Y-78790315D01*
X154783094Y-78837934D01*
X154878332Y-78885553D01*
X154973570Y-78885553D01*
X155116427Y-78837934D01*
X155687855Y-78266506D01*
X155687855Y-78885553D01*
%TO.C,U1*%
X141687855Y-77314125D02*
X142497379Y-77314125D01*
X142592617Y-77361744D01*
X142640236Y-77409363D01*
X142687855Y-77504601D01*
X142687855Y-77695077D01*
X142640236Y-77790315D01*
X142592617Y-77837934D01*
X142497379Y-77885553D01*
X141687855Y-77885553D01*
X142687855Y-78885553D02*
X142687855Y-78314125D01*
X142687855Y-78599839D02*
X141687855Y-78599839D01*
X141830713Y-78504601D01*
X141925951Y-78409363D01*
X141973570Y-78314125D01*
%TO.C,D1*%
X142203570Y-85778410D02*
X142203570Y-84778410D01*
X141965475Y-84778410D01*
X141822617Y-84826030D01*
X141727379Y-84921268D01*
X141679760Y-85016506D01*
X141632141Y-85206982D01*
X141632141Y-85349839D01*
X141679760Y-85540315D01*
X141727379Y-85635553D01*
X141822617Y-85730791D01*
X141965475Y-85778410D01*
X142203570Y-85778410D01*
X140679760Y-85778410D02*
X141251189Y-85778410D01*
X140965475Y-85778410D02*
X140965475Y-84778410D01*
X141060713Y-84921268D01*
X141155951Y-85016506D01*
X141251189Y-85064125D01*
%TO.C,D7*%
X179493778Y-64791627D02*
X178871263Y-65574236D01*
X179057599Y-65722453D01*
X179199043Y-65774117D01*
X179332864Y-65758870D01*
X179429419Y-65713979D01*
X179585260Y-65594555D01*
X179674191Y-65482754D01*
X179755498Y-65304042D01*
X179777518Y-65199864D01*
X179762271Y-65066043D01*
X179680113Y-64939845D01*
X179493778Y-64791627D01*
X179579337Y-66137463D02*
X180101076Y-66552473D01*
X180388187Y-65503073D01*
%TO.C,D10*%
X134788906Y-56695998D02*
X134504890Y-55737178D01*
X134276600Y-55804800D01*
X134153150Y-55891032D01*
X134088883Y-56009397D01*
X134070274Y-56114238D01*
X134078714Y-56310395D01*
X134119288Y-56447369D01*
X134219044Y-56616477D01*
X134291751Y-56694269D01*
X134410117Y-56758536D01*
X134560615Y-56763620D01*
X134788906Y-56695998D01*
X133327847Y-57128783D02*
X133875744Y-56966488D01*
X133601796Y-57047636D02*
X133317780Y-56088816D01*
X133449670Y-56198741D01*
X133568035Y-56263008D01*
X133672876Y-56281617D01*
X132450277Y-56345782D02*
X132358961Y-56372831D01*
X132281169Y-56445538D01*
X132249035Y-56504721D01*
X132230426Y-56609562D01*
X132238866Y-56805719D01*
X132306489Y-57034009D01*
X132406245Y-57203117D01*
X132478953Y-57280908D01*
X132538135Y-57313042D01*
X132642976Y-57331651D01*
X132734292Y-57304602D01*
X132812084Y-57231895D01*
X132844217Y-57172712D01*
X132862826Y-57067871D01*
X132854386Y-56871714D01*
X132786763Y-56643424D01*
X132687007Y-56474316D01*
X132614300Y-56396525D01*
X132555117Y-56364391D01*
X132450277Y-56345782D01*
%TO.C,D13*%
X151727604Y-54172744D02*
X151631758Y-55168140D01*
X151868757Y-55190961D01*
X152015521Y-55157253D01*
X152119449Y-55071582D01*
X152175977Y-54981346D01*
X152241633Y-54796311D01*
X152255325Y-54654111D01*
X152226182Y-54459948D01*
X152187910Y-54360584D01*
X152102238Y-54256657D01*
X151964603Y-54195565D01*
X151727604Y-54172744D01*
X153244398Y-54318795D02*
X152675600Y-54264026D01*
X152959999Y-54291410D02*
X152864153Y-55286806D01*
X152783046Y-55135479D01*
X152697375Y-55031551D01*
X152607139Y-54975023D01*
X153480351Y-55346140D02*
X154096549Y-55405473D01*
X153801263Y-54994325D01*
X153943462Y-55008018D01*
X154042826Y-54969746D01*
X154094790Y-54926910D01*
X154151318Y-54836675D01*
X154174138Y-54599676D01*
X154135867Y-54500312D01*
X154093031Y-54448348D01*
X154002795Y-54391820D01*
X153718396Y-54364436D01*
X153619033Y-54402707D01*
X153567069Y-54445543D01*
%TO.C,D6*%
X117069449Y-65499701D02*
X116446934Y-64717093D01*
X116260599Y-64865311D01*
X116178441Y-64991509D01*
X116163194Y-65125330D01*
X116185214Y-65229508D01*
X116266521Y-65408219D01*
X116355452Y-65520021D01*
X116511293Y-65639445D01*
X116607847Y-65684336D01*
X116741669Y-65699583D01*
X116883113Y-65647919D01*
X117069449Y-65499701D01*
X115328922Y-65606400D02*
X115477991Y-65487826D01*
X115582168Y-65465806D01*
X115649079Y-65473429D01*
X115812544Y-65525943D01*
X115968385Y-65645368D01*
X116205533Y-65943504D01*
X116227553Y-66047682D01*
X116219930Y-66114593D01*
X116175039Y-66211147D01*
X116025971Y-66329721D01*
X115921793Y-66351741D01*
X115854883Y-66344118D01*
X115758329Y-66299227D01*
X115610111Y-66112892D01*
X115588091Y-66008714D01*
X115595714Y-65941803D01*
X115640605Y-65845249D01*
X115789673Y-65726675D01*
X115893851Y-65704655D01*
X115960761Y-65712278D01*
X116057316Y-65757169D01*
%TO.C,Q9*%
X134285383Y-58942387D02*
X134363175Y-58869680D01*
X134427442Y-58751315D01*
X134523842Y-58573767D01*
X134601634Y-58501060D01*
X134692950Y-58474011D01*
X134714915Y-58715826D02*
X134792706Y-58643119D01*
X134856973Y-58524753D01*
X134848533Y-58328597D01*
X134753861Y-58008990D01*
X134654105Y-57839882D01*
X134535740Y-57775615D01*
X134430899Y-57757006D01*
X134248267Y-57811104D01*
X134170475Y-57883811D01*
X134106208Y-58002177D01*
X134114648Y-58198334D01*
X134209320Y-58517940D01*
X134309076Y-58687048D01*
X134427442Y-58751315D01*
X134532282Y-58769924D01*
X134714915Y-58715826D01*
X133847411Y-58972792D02*
X133664779Y-59026890D01*
X133559938Y-59008281D01*
X133500755Y-58976148D01*
X133368866Y-58866223D01*
X133269109Y-58697115D01*
X133160913Y-58331850D01*
X133179522Y-58227009D01*
X133211656Y-58167827D01*
X133289447Y-58095120D01*
X133472080Y-58041021D01*
X133576920Y-58059630D01*
X133636103Y-58091764D01*
X133708810Y-58169556D01*
X133776433Y-58397846D01*
X133757824Y-58502687D01*
X133725690Y-58561869D01*
X133647899Y-58634576D01*
X133465266Y-58688675D01*
X133360426Y-58670066D01*
X133301243Y-58637932D01*
X133228536Y-58560140D01*
%TO.C,Q8*%
X170860270Y-61452721D02*
X170753804Y-61450984D01*
X170625351Y-61491485D01*
X170432671Y-61552237D01*
X170326206Y-61550499D01*
X170241729Y-61506523D01*
X170393907Y-61317318D02*
X170287442Y-61315581D01*
X170158989Y-61356082D01*
X170028798Y-61503048D01*
X169874882Y-61798719D01*
X169829168Y-61989661D01*
X169869670Y-62118115D01*
X169932159Y-62204329D01*
X170101113Y-62292281D01*
X170207579Y-62294019D01*
X170336032Y-62253518D01*
X170466223Y-62106551D01*
X170620139Y-61810881D01*
X170665852Y-61619938D01*
X170625351Y-61491485D01*
X170562862Y-61405270D01*
X170393907Y-61317318D01*
X171017062Y-62285930D02*
X170910597Y-62284193D01*
X170846370Y-62304443D01*
X170760155Y-62366933D01*
X170738167Y-62409171D01*
X170736430Y-62515636D01*
X170756680Y-62579863D01*
X170819170Y-62666078D01*
X170988124Y-62754030D01*
X171094589Y-62755767D01*
X171158816Y-62735517D01*
X171245031Y-62673028D01*
X171267019Y-62630789D01*
X171268756Y-62524324D01*
X171248506Y-62460097D01*
X171186016Y-62373882D01*
X171017062Y-62285930D01*
X170954573Y-62199716D01*
X170934322Y-62135489D01*
X170936060Y-62029024D01*
X171024012Y-61860069D01*
X171110226Y-61797580D01*
X171174453Y-61777330D01*
X171280918Y-61779067D01*
X171449873Y-61867019D01*
X171512362Y-61953234D01*
X171532612Y-62017460D01*
X171530875Y-62123926D01*
X171442923Y-62292880D01*
X171356708Y-62355369D01*
X171292482Y-62375620D01*
X171186016Y-62373882D01*
%TO.C,D11*%
X161468060Y-55828494D02*
X161184044Y-56787314D01*
X161412335Y-56854936D01*
X161562833Y-56849852D01*
X161681199Y-56785585D01*
X161753906Y-56707793D01*
X161853662Y-56538685D01*
X161894236Y-56401711D01*
X161902676Y-56205554D01*
X161884067Y-56100714D01*
X161819800Y-55982348D01*
X161696350Y-55896117D01*
X161468060Y-55828494D01*
X162929118Y-56261279D02*
X162381221Y-56098985D01*
X162655170Y-56180132D02*
X162371154Y-57138952D01*
X162320412Y-56974928D01*
X162256145Y-56856563D01*
X162178353Y-56783856D01*
X163842280Y-56531770D02*
X163294383Y-56369476D01*
X163568331Y-56450623D02*
X163284316Y-57409443D01*
X163233573Y-57245419D01*
X163169306Y-57127054D01*
X163091515Y-57054347D01*
%TO.C,D12*%
X144132166Y-52139322D02*
X144036320Y-51143925D01*
X143799321Y-51166746D01*
X143661685Y-51227838D01*
X143576014Y-51331766D01*
X143537742Y-51431129D01*
X143508599Y-51625293D01*
X143522291Y-51767492D01*
X143587947Y-51952527D01*
X143644475Y-52042763D01*
X143748403Y-52128435D01*
X143895167Y-52162142D01*
X144132166Y-52139322D01*
X142615371Y-52285372D02*
X143184169Y-52230603D01*
X142899770Y-52257988D02*
X142803925Y-51262592D01*
X142912417Y-51395663D01*
X143016344Y-51481334D01*
X143115708Y-51519606D01*
X142149455Y-51421288D02*
X142097491Y-51378453D01*
X141998128Y-51340181D01*
X141761129Y-51363001D01*
X141670893Y-51419529D01*
X141628057Y-51471493D01*
X141589786Y-51570857D01*
X141598914Y-51665657D01*
X141660006Y-51803292D01*
X142283573Y-52317321D01*
X141667375Y-52376654D01*
%TO.C,D8*%
X125283884Y-60334888D02*
X124822136Y-59447877D01*
X124610943Y-59557817D01*
X124506215Y-59666020D01*
X124465714Y-59794473D01*
X124467451Y-59900938D01*
X124513165Y-60091881D01*
X124579129Y-60218597D01*
X124709319Y-60365563D01*
X124795534Y-60428052D01*
X124923987Y-60468553D01*
X125072691Y-60444828D01*
X125283884Y-60334888D01*
X124006301Y-60355737D02*
X124068790Y-60269523D01*
X124089041Y-60205296D01*
X124087304Y-60098831D01*
X124065316Y-60056592D01*
X123979101Y-59994103D01*
X123914874Y-59973852D01*
X123808409Y-59975590D01*
X123639455Y-60063542D01*
X123576965Y-60149757D01*
X123556715Y-60213983D01*
X123558452Y-60320448D01*
X123580440Y-60362687D01*
X123666655Y-60425176D01*
X123730882Y-60445427D01*
X123837347Y-60443689D01*
X124006301Y-60355737D01*
X124112766Y-60354000D01*
X124176993Y-60374250D01*
X124263208Y-60436740D01*
X124351160Y-60605694D01*
X124352897Y-60712159D01*
X124332647Y-60776386D01*
X124270158Y-60862601D01*
X124101203Y-60950553D01*
X123994738Y-60952290D01*
X123930511Y-60932040D01*
X123844297Y-60869550D01*
X123756344Y-60700596D01*
X123754607Y-60594131D01*
X123774858Y-60529904D01*
X123837347Y-60443689D01*
%TO.C,D4*%
X109990728Y-72137266D02*
X109230322Y-71487818D01*
X109075692Y-71668867D01*
X109019123Y-71808423D01*
X109029691Y-71942695D01*
X109071184Y-72040757D01*
X109185097Y-72200671D01*
X109293727Y-72293449D01*
X109469492Y-72380944D01*
X109572838Y-72406586D01*
X109707110Y-72396019D01*
X109836098Y-72318315D01*
X109990728Y-72137266D01*
X108556008Y-72790595D02*
X109062945Y-73223561D01*
X108420960Y-72362137D02*
X109118738Y-72644980D01*
X108716698Y-73115707D01*
%TO.C,Q12*%
X152191834Y-56053739D02*
X152092470Y-56092010D01*
X151988542Y-56177682D01*
X151832650Y-56306189D01*
X151733287Y-56344461D01*
X151638487Y-56335332D01*
X151708707Y-56102897D02*
X151609344Y-56141169D01*
X151505416Y-56226841D01*
X151439760Y-56411876D01*
X151407811Y-56743674D01*
X151436954Y-56937838D01*
X151522626Y-57041766D01*
X151612862Y-57098294D01*
X151802461Y-57116550D01*
X151901825Y-57078278D01*
X152005752Y-56992607D01*
X152071408Y-56807572D01*
X152103357Y-56475773D01*
X152074214Y-56281610D01*
X151988542Y-56177682D01*
X151898307Y-56121154D01*
X151708707Y-56102897D01*
X153083302Y-56235256D02*
X152514504Y-56180487D01*
X152798903Y-56207871D02*
X152703057Y-57203268D01*
X152621950Y-57051940D01*
X152536279Y-56948012D01*
X152446043Y-56891484D01*
X153375783Y-57172365D02*
X153418619Y-57224329D01*
X153508854Y-57280857D01*
X153745853Y-57303677D01*
X153845217Y-57265406D01*
X153897181Y-57222570D01*
X153953709Y-57132334D01*
X153962837Y-57037535D01*
X153929130Y-56890771D01*
X153415101Y-56267204D01*
X154031298Y-56326537D01*
%TO.C,Q2*%
X191205812Y-81020959D02*
X191117469Y-80961517D01*
X190987681Y-80925523D01*
X190792998Y-80871533D01*
X190704655Y-80812091D01*
X190657758Y-80729200D01*
X190888434Y-80653401D02*
X190800091Y-80593959D01*
X190670302Y-80557966D01*
X190481072Y-80610315D01*
X190190953Y-80774456D01*
X190048620Y-80909697D01*
X190012626Y-81039485D01*
X190018078Y-81145825D01*
X190111873Y-81311607D01*
X190200216Y-81371049D01*
X190330005Y-81407043D01*
X190519235Y-81354693D01*
X190809354Y-81190552D01*
X190951687Y-81055312D01*
X190987681Y-80925523D01*
X190982229Y-80819183D01*
X190888434Y-80653401D01*
X190499598Y-81803501D02*
X190481601Y-81868395D01*
X190487053Y-81974735D01*
X190604297Y-82181963D01*
X190692640Y-82241405D01*
X190757534Y-82259402D01*
X190863874Y-82253950D01*
X190946765Y-82207052D01*
X191047653Y-82095261D01*
X191263614Y-81316529D01*
X191568447Y-81855321D01*
%TO.C,D2*%
X192475667Y-79565007D02*
X191605312Y-80057431D01*
X191722555Y-80264658D01*
X191834347Y-80365546D01*
X191964136Y-80401539D01*
X192070475Y-80396088D01*
X192259706Y-80343738D01*
X192384043Y-80273392D01*
X192526376Y-80138151D01*
X192585818Y-80049808D01*
X192621812Y-79920020D01*
X192592911Y-79772235D01*
X192475667Y-79565007D01*
X192157177Y-80839443D02*
X192139181Y-80904338D01*
X192144633Y-81010677D01*
X192261876Y-81217905D01*
X192350219Y-81277347D01*
X192415114Y-81295344D01*
X192521453Y-81289892D01*
X192604344Y-81242994D01*
X192705232Y-81131203D01*
X192921193Y-80352472D01*
X193226027Y-80891263D01*
%TO.C,Q5*%
X117818285Y-67483991D02*
X117863176Y-67387436D01*
X117878423Y-67253615D01*
X117901294Y-67052883D01*
X117946184Y-66956329D01*
X118020718Y-66897042D01*
X118131669Y-67113021D02*
X118176559Y-67016467D01*
X118191806Y-66882645D01*
X118110499Y-66703934D01*
X117902994Y-66443064D01*
X117747153Y-66323640D01*
X117613332Y-66308393D01*
X117509154Y-66330413D01*
X117360086Y-66448987D01*
X117315196Y-66545541D01*
X117299949Y-66679362D01*
X117381256Y-66858074D01*
X117588761Y-67118943D01*
X117744602Y-67238368D01*
X117878423Y-67253615D01*
X117982601Y-67231595D01*
X118131669Y-67113021D01*
X116465677Y-67160432D02*
X116838347Y-66863997D01*
X117172050Y-67207024D01*
X117105139Y-67199400D01*
X117000962Y-67221420D01*
X116814626Y-67369638D01*
X116769736Y-67466192D01*
X116762112Y-67533103D01*
X116784132Y-67637280D01*
X116932350Y-67823616D01*
X117028904Y-67868506D01*
X117095815Y-67876130D01*
X117199993Y-67854110D01*
X117386328Y-67705892D01*
X117431218Y-67609338D01*
X117438842Y-67542427D01*
%TO.C,Q10*%
X161566260Y-57766594D02*
X161461419Y-57785203D01*
X161343054Y-57849470D01*
X161165506Y-57945871D01*
X161060665Y-57964480D01*
X160969349Y-57937431D01*
X161082630Y-57722665D02*
X160977789Y-57741274D01*
X160859424Y-57805541D01*
X160759668Y-57974649D01*
X160664996Y-58294255D01*
X160656556Y-58490412D01*
X160720823Y-58608777D01*
X160798614Y-58681485D01*
X160981247Y-58735583D01*
X161086088Y-58716974D01*
X161204453Y-58652707D01*
X161304209Y-58483599D01*
X161398881Y-58163992D01*
X161407321Y-57967835D01*
X161343054Y-57849470D01*
X161265262Y-57776763D01*
X161082630Y-57722665D01*
X162406714Y-58114876D02*
X161858817Y-57952582D01*
X162132766Y-58033729D02*
X161848750Y-58992549D01*
X161798008Y-58828526D01*
X161733741Y-58710160D01*
X161655949Y-58637453D01*
X162716254Y-59249515D02*
X162807570Y-59276564D01*
X162912411Y-59257955D01*
X162971593Y-59225822D01*
X163044301Y-59148030D01*
X163144057Y-58978922D01*
X163211680Y-58750632D01*
X163220120Y-58554475D01*
X163201511Y-58449634D01*
X163169377Y-58390452D01*
X163091585Y-58317745D01*
X163000269Y-58290696D01*
X162895429Y-58309305D01*
X162836246Y-58341438D01*
X162763539Y-58419230D01*
X162663783Y-58588337D01*
X162596160Y-58816628D01*
X162587720Y-59012785D01*
X162606329Y-59117625D01*
X162638462Y-59176808D01*
X162716254Y-59249515D01*
%TO.C,D1*%
X104311796Y-80010533D02*
X103441441Y-79518110D01*
X103324197Y-79725337D01*
X103295296Y-79873122D01*
X103331290Y-80002911D01*
X103390732Y-80091254D01*
X103533065Y-80226494D01*
X103657402Y-80296841D01*
X103846633Y-80349190D01*
X103952972Y-80354642D01*
X104082761Y-80318648D01*
X104194553Y-80217761D01*
X104311796Y-80010533D01*
X103561437Y-81336789D02*
X103842822Y-80839443D01*
X103702129Y-81088116D02*
X102831773Y-80595693D01*
X103003007Y-80583148D01*
X103132796Y-80547154D01*
X103221139Y-80487712D01*
%TO.C,Q6*%
X178863515Y-66626848D02*
X178759338Y-66604828D01*
X178625516Y-66620075D01*
X178424785Y-66642946D01*
X178320607Y-66620926D01*
X178246073Y-66561639D01*
X178431558Y-66404947D02*
X178327380Y-66382927D01*
X178193559Y-66398174D01*
X178037717Y-66517598D01*
X177830213Y-66778468D01*
X177748905Y-66957180D01*
X177764152Y-67091001D01*
X177809043Y-67187555D01*
X177958111Y-67306129D01*
X178062289Y-67328149D01*
X178196110Y-67312902D01*
X178351951Y-67193478D01*
X178559456Y-66932608D01*
X178640763Y-66753896D01*
X178625516Y-66620075D01*
X178580626Y-66523521D01*
X178431558Y-66404947D01*
X178815253Y-67987931D02*
X178666185Y-67869357D01*
X178621295Y-67772803D01*
X178613671Y-67705892D01*
X178628068Y-67534804D01*
X178709375Y-67356092D01*
X178946523Y-67057955D01*
X179043077Y-67013065D01*
X179109988Y-67005441D01*
X179214166Y-67027461D01*
X179363234Y-67146036D01*
X179408125Y-67242590D01*
X179415748Y-67309500D01*
X179393728Y-67413678D01*
X179245510Y-67600013D01*
X179148956Y-67644904D01*
X179082045Y-67652527D01*
X178977868Y-67630507D01*
X178828800Y-67511933D01*
X178783909Y-67415379D01*
X178776285Y-67348468D01*
X178798306Y-67244291D01*
%TO.C,D5*%
X186697257Y-71549671D02*
X185936851Y-72199119D01*
X186091482Y-72380168D01*
X186220470Y-72457871D01*
X186354742Y-72468438D01*
X186458087Y-72442796D01*
X186633853Y-72355301D01*
X186742482Y-72262523D01*
X186856395Y-72102609D01*
X186897889Y-72004547D01*
X186908456Y-71870275D01*
X186851888Y-71730720D01*
X186697257Y-71549671D01*
X186895560Y-73321623D02*
X186586299Y-72959525D01*
X186917471Y-72614054D01*
X186912188Y-72681190D01*
X186937830Y-72784535D01*
X187092460Y-72965584D01*
X187190522Y-73007078D01*
X187257658Y-73012362D01*
X187361004Y-72986719D01*
X187542053Y-72832089D01*
X187583547Y-72734027D01*
X187588830Y-72666891D01*
X187563188Y-72563545D01*
X187408557Y-72382496D01*
X187310495Y-72341003D01*
X187243359Y-72335719D01*
%TO.C,Q4*%
X185729230Y-73226351D02*
X185631168Y-73184857D01*
X185496896Y-73174290D01*
X185295489Y-73158439D01*
X185197427Y-73116945D01*
X185135574Y-73044526D01*
X185347550Y-72926105D02*
X185249488Y-72884611D01*
X185115216Y-72874044D01*
X184939450Y-72961539D01*
X184685982Y-73178021D01*
X184572069Y-73337935D01*
X184561501Y-73472207D01*
X184587144Y-73575553D01*
X184710848Y-73720392D01*
X184808910Y-73761886D01*
X184943182Y-73772453D01*
X185118947Y-73684959D01*
X185372416Y-73468476D01*
X185486329Y-73308562D01*
X185496896Y-73174290D01*
X185471254Y-73070944D01*
X185347550Y-72926105D01*
X185675617Y-74336735D02*
X186182554Y-73903770D01*
X185231308Y-74403095D02*
X185619825Y-73758154D01*
X186021864Y-74228882D01*
%TO.C,Q11*%
X143905346Y-57094164D02*
X143995582Y-57037636D01*
X144081253Y-56933709D01*
X144209761Y-56777817D01*
X144299996Y-56721289D01*
X144394796Y-56712161D01*
X144370216Y-56953724D02*
X144460452Y-56897196D01*
X144546123Y-56793268D01*
X144575267Y-56599105D01*
X144543318Y-56267306D01*
X144477662Y-56082271D01*
X144373734Y-55996599D01*
X144274371Y-55958328D01*
X144084771Y-55976584D01*
X143994536Y-56033112D01*
X143908864Y-56137040D01*
X143879721Y-56331203D01*
X143911669Y-56663002D01*
X143977326Y-56848037D01*
X144081253Y-56933709D01*
X144180617Y-56971980D01*
X144370216Y-56953724D01*
X142995622Y-57086082D02*
X143564419Y-57031313D01*
X143280020Y-57058698D02*
X143184175Y-56063302D01*
X143292667Y-56196373D01*
X143396594Y-56282044D01*
X143495958Y-56320316D01*
X142047625Y-57177364D02*
X142616423Y-57122595D01*
X142332024Y-57149980D02*
X142236178Y-56154583D01*
X142344670Y-56287655D01*
X142448598Y-56373326D01*
X142547962Y-56411598D01*
%TO.C,Q1*%
X105747433Y-81560280D02*
X105752885Y-81453940D01*
X105716892Y-81324152D01*
X105662901Y-81129469D01*
X105668353Y-81023129D01*
X105715251Y-80940238D01*
X105899030Y-81098927D02*
X105904482Y-80992588D01*
X105868488Y-80862799D01*
X105726155Y-80727559D01*
X105436036Y-80563418D01*
X105246806Y-80511068D01*
X105117017Y-80547062D01*
X105028674Y-80606504D01*
X104934879Y-80772286D01*
X104929427Y-80878626D01*
X104965421Y-81008414D01*
X105107754Y-81143655D01*
X105397872Y-81307796D01*
X105587103Y-81360145D01*
X105716892Y-81324152D01*
X105805235Y-81264709D01*
X105899030Y-81098927D01*
X105219016Y-82300847D02*
X105500401Y-81803501D01*
X105359709Y-82052174D02*
X104489353Y-81559751D01*
X104660587Y-81547206D01*
X104790376Y-81511212D01*
X104878718Y-81451770D01*
%TO.C,Q3*%
X111103594Y-73937651D02*
X111129237Y-73834305D01*
X111118669Y-73700033D01*
X111102818Y-73498626D01*
X111128461Y-73395280D01*
X111190313Y-73322860D01*
X111340436Y-73513701D02*
X111366078Y-73410355D01*
X111355511Y-73276083D01*
X111241598Y-73116169D01*
X110988129Y-72899686D01*
X110812364Y-72812192D01*
X110678092Y-72822759D01*
X110580030Y-72864253D01*
X110456325Y-73009092D01*
X110430683Y-73112438D01*
X110441251Y-73246709D01*
X110555164Y-73406624D01*
X110808632Y-73623106D01*
X110984398Y-73710601D01*
X111118669Y-73700033D01*
X111216731Y-73658540D01*
X111340436Y-73513701D01*
X110085212Y-73443610D02*
X109683173Y-73914337D01*
X110189334Y-73908277D01*
X110096556Y-74016907D01*
X110070914Y-74120252D01*
X110076197Y-74187388D01*
X110117691Y-74285450D01*
X110298740Y-74440081D01*
X110402085Y-74465723D01*
X110469221Y-74460439D01*
X110567283Y-74418946D01*
X110752840Y-74201687D01*
X110778482Y-74098341D01*
X110773199Y-74031205D01*
%TO.C,D9*%
X171133886Y-59532353D02*
X170672138Y-60419364D01*
X170883331Y-60529304D01*
X171032035Y-60553030D01*
X171160488Y-60512529D01*
X171246703Y-60450039D01*
X171376893Y-60303073D01*
X171442857Y-60176357D01*
X171488571Y-59985415D01*
X171490308Y-59878949D01*
X171449807Y-59750496D01*
X171345079Y-59642293D01*
X171133886Y-59532353D01*
X172063136Y-60016090D02*
X172232090Y-60104042D01*
X172294579Y-60190257D01*
X172314830Y-60254483D01*
X172333343Y-60425175D01*
X172287630Y-60616118D01*
X172111725Y-60954027D01*
X172025511Y-61016516D01*
X171961284Y-61036766D01*
X171854819Y-61035029D01*
X171685864Y-60947077D01*
X171623375Y-60860862D01*
X171603125Y-60796635D01*
X171604862Y-60690170D01*
X171714802Y-60478977D01*
X171801017Y-60416488D01*
X171865243Y-60396237D01*
X171971709Y-60397975D01*
X172140663Y-60485927D01*
X172203152Y-60572142D01*
X172223403Y-60636368D01*
X172221666Y-60742834D01*
%TO.C,Q7*%
X125645454Y-62424209D02*
X125707943Y-62337995D01*
X125748444Y-62209542D01*
X125809196Y-62016862D01*
X125871685Y-61930647D01*
X125956163Y-61886671D01*
X126023864Y-62119852D02*
X126086353Y-62033637D01*
X126126854Y-61905184D01*
X126081141Y-61714242D01*
X125927225Y-61418571D01*
X125797034Y-61271605D01*
X125668581Y-61231104D01*
X125562115Y-61232841D01*
X125393161Y-61320793D01*
X125330672Y-61407008D01*
X125290171Y-61535461D01*
X125335884Y-61726404D01*
X125489800Y-62022074D01*
X125619991Y-62169040D01*
X125748444Y-62209542D01*
X125854910Y-62207804D01*
X126023864Y-62119852D01*
X124886298Y-61584650D02*
X124294957Y-61892482D01*
X125136853Y-62581601D01*
D11*
%TO.C,D3*%
X153665475Y-83091030D02*
X156125475Y-83091030D01*
X156125475Y-84561030D02*
X153665475Y-84561030D01*
X156125475Y-83091030D02*
X156125475Y-84561030D01*
%TO.C,U2*%
X151765475Y-75776030D02*
X157165475Y-75776030D01*
X157165475Y-75776030D02*
X157165475Y-80376030D01*
X157165475Y-80376030D02*
X151765475Y-80376030D01*
X151765475Y-80376030D02*
X151765475Y-75776030D01*
%TO.C,U1*%
X138765475Y-75776030D02*
X144165475Y-75776030D01*
X144165475Y-75776030D02*
X144165475Y-80376030D01*
X144165475Y-80376030D02*
X138765475Y-80376030D01*
X138765475Y-80376030D02*
X138765475Y-75776030D01*
%TO.C,D1*%
X140665475Y-83091030D02*
X143125475Y-83091030D01*
X143125475Y-84561030D02*
X140665475Y-84561030D01*
X143125475Y-83091030D02*
X143125475Y-84561030D01*
%TO.C,D7*%
X179838419Y-62877419D02*
X181763635Y-64408805D01*
X178923322Y-64027853D02*
X179838419Y-62877419D01*
X180848538Y-65559239D02*
X178923322Y-64027853D01*
%TO.C,D10*%
X134065807Y-55713530D02*
X131707111Y-56412208D01*
X131707111Y-56412208D02*
X131289608Y-55002743D01*
X131289608Y-55002743D02*
X133648305Y-54304065D01*
%TO.C,D13*%
X151307196Y-53888522D02*
X151448089Y-52425290D01*
X151448089Y-52425290D02*
X153896764Y-52661070D01*
X153755870Y-54124303D02*
X151307196Y-53888522D01*
%TO.C,D6*%
X113563322Y-64944167D02*
X115488538Y-63412781D01*
X116403635Y-64563215D02*
X114478419Y-66094601D01*
X114478419Y-66094601D02*
X113563322Y-64944167D01*
%TO.C,Q9*%
X136566059Y-60428208D02*
X133823835Y-61240492D01*
X133278526Y-59399558D02*
X136020750Y-58587275D01*
X136020750Y-58587275D02*
X136566059Y-60428208D01*
%TO.C,Q8*%
X172023119Y-63453332D02*
X171136561Y-65156393D01*
X169486268Y-62132731D02*
X172023119Y-63453332D01*
X171136561Y-65156393D02*
X168599710Y-63835792D01*
%TO.C,D11*%
X161527111Y-54059812D02*
X163885807Y-54758490D01*
X161109608Y-55469277D02*
X161527111Y-54059812D01*
X163468305Y-56167955D02*
X161109608Y-55469277D01*
%TO.C,D12*%
X141247196Y-52743498D02*
X143695870Y-52507717D01*
X143836764Y-53970950D02*
X141388089Y-54206730D01*
X141388089Y-54206730D02*
X141247196Y-52743498D01*
%TO.C,D8*%
X121948177Y-59120560D02*
X124130223Y-57984658D01*
X122626947Y-60424466D02*
X121948177Y-59120560D01*
X124808994Y-59288564D02*
X122626947Y-60424466D01*
%TO.C,D4*%
X109158457Y-71345030D02*
X107560815Y-73215628D01*
X106443018Y-72260940D02*
X108040660Y-70390341D01*
X107560815Y-73215628D02*
X106443018Y-72260940D01*
%TO.C,Q12*%
X154493449Y-57518703D02*
X154309425Y-59429863D01*
X154309425Y-59429863D02*
X151462592Y-59155745D01*
X151646616Y-57244584D02*
X154493449Y-57518703D01*
%TO.C,Q2*%
X189420366Y-84277598D02*
X188012035Y-81788381D01*
X191091449Y-83332145D02*
X189420366Y-84277598D01*
X189683118Y-80842928D02*
X191091449Y-83332145D01*
%TO.C,D2*%
X193444227Y-80784226D02*
X192232865Y-78643151D01*
X192232865Y-78643151D02*
X193512288Y-77919288D01*
X193512288Y-77919288D02*
X194723650Y-80060363D01*
%TO.C,Q5*%
X117049778Y-68277221D02*
X119288037Y-66496829D01*
X119288037Y-66496829D02*
X120483265Y-67999437D01*
X120483265Y-67999437D02*
X118245006Y-69779828D01*
%TO.C,Q10*%
X160803835Y-58831528D02*
X163546059Y-59643812D01*
X163546059Y-59643812D02*
X163000750Y-61484745D01*
X163000750Y-61484745D02*
X160258526Y-60672462D01*
%TO.C,D1*%
X100852865Y-80808869D02*
X102064227Y-78667794D01*
X103343650Y-79391657D02*
X102132288Y-81532732D01*
X102132288Y-81532732D02*
X100852865Y-80808869D01*
%TO.C,Q6*%
X179623265Y-68812583D02*
X178428037Y-70315191D01*
X177385006Y-67032192D02*
X179623265Y-68812583D01*
X178428037Y-70315191D02*
X176189778Y-68534799D01*
%TO.C,D5*%
X187400815Y-69736392D02*
X188998457Y-71606990D01*
X187880660Y-72561679D02*
X186283018Y-70691080D01*
X186283018Y-70691080D02*
X187400815Y-69736392D01*
%TO.C,Q4*%
X184200542Y-73342134D02*
X186057963Y-75516895D01*
X186057963Y-75516895D02*
X184597984Y-76763835D01*
X184597984Y-76763835D02*
X182740562Y-74589074D01*
%TO.C,Q11*%
X142359592Y-57436275D02*
X145206425Y-57162157D01*
X145390449Y-59073317D02*
X142543616Y-59347436D01*
X145206425Y-57162157D02*
X145390449Y-59073317D01*
%TO.C,Q1*%
X105332035Y-82583639D02*
X106740366Y-80094422D01*
X106740366Y-80094422D02*
X108411449Y-81039875D01*
X108411449Y-81039875D02*
X107003118Y-83529092D01*
%TO.C,Q3*%
X112357984Y-72688185D02*
X113817963Y-73935125D01*
X110500562Y-74862946D02*
X112357984Y-72688185D01*
X113817963Y-73935125D02*
X111960542Y-76109886D01*
%TO.C,D9*%
X171106947Y-57587554D02*
X173288994Y-58723456D01*
X172610223Y-60027362D02*
X170428177Y-58891460D01*
X170428177Y-58891460D02*
X171106947Y-57587554D01*
%TO.C,Q7*%
X127276561Y-61735627D02*
X128163119Y-63438688D01*
X124739710Y-63056228D02*
X127276561Y-61735627D01*
X128163119Y-63438688D02*
X125626268Y-64759289D01*
%TD*%
M02*
