%TF.GenerationSoftware,KiCad,Pcbnew,(6.0.4)*%
%TF.CreationDate,2022-08-25T18:27:48+09:00*%
%TF.ProjectId,total,746f7461-6c2e-46b6-9963-61645f706362,rev?*%
%TF.SameCoordinates,Original*%
%TF.FileFunction,Soldermask,Top*%
%TF.FilePolarity,Negative*%
%FSLAX46Y46*%
G04 Gerber Fmt 4.6, Leading zero omitted, Abs format (unit mm)*
G04 Created by KiCad (PCBNEW (6.0.4)) date 2022-08-25 18:27:48*
%MOMM*%
%LPD*%
G01*
G04 APERTURE LIST*
G04 Aperture macros list*
%AMRoundRect*
0 Rectangle with rounded corners*
0 $1 Rounding radius*
0 $2 $3 $4 $5 $6 $7 $8 $9 X,Y pos of 4 corners*
0 Add a 4 corners polygon primitive as box body*
4,1,4,$2,$3,$4,$5,$6,$7,$8,$9,$2,$3,0*
0 Add four circle primitives for the rounded corners*
1,1,$1+$1,$2,$3*
1,1,$1+$1,$4,$5*
1,1,$1+$1,$6,$7*
1,1,$1+$1,$8,$9*
0 Add four rect primitives between the rounded corners*
20,1,$1+$1,$2,$3,$4,$5,0*
20,1,$1+$1,$4,$5,$6,$7,0*
20,1,$1+$1,$6,$7,$8,$9,0*
20,1,$1+$1,$8,$9,$2,$3,0*%
G04 Aperture macros list end*
%ADD10RoundRect,0.155000X0.155000X-0.212500X0.155000X0.212500X-0.155000X0.212500X-0.155000X-0.212500X0*%
%ADD11R,0.300000X1.000000*%
%ADD12R,1.600000X1.600000*%
%ADD13RoundRect,0.237500X-0.237500X0.250000X-0.237500X-0.250000X0.237500X-0.250000X0.237500X0.250000X0*%
%ADD14C,2.286000*%
%ADD15RoundRect,0.237500X0.250000X0.237500X-0.250000X0.237500X-0.250000X-0.237500X0.250000X-0.237500X0*%
%ADD16RoundRect,0.237500X-0.035858X-0.342958X0.344345X-0.018234X0.035858X0.342958X-0.344345X0.018234X0*%
%ADD17RoundRect,0.237500X0.030241X-0.343499X0.341498X0.047805X-0.030241X0.343499X-0.341498X-0.047805X0*%
%ADD18RoundRect,0.237500X0.156716X-0.307159X0.298724X0.172251X-0.156716X0.307159X-0.298724X-0.172251X0*%
%ADD19RoundRect,0.237500X0.212445X-0.271612X0.260368X0.226086X-0.212445X0.271612X-0.260368X-0.226086X0*%
%ADD20R,0.300000X1.300000*%
%ADD21RoundRect,0.155000X-0.212500X-0.155000X0.212500X-0.155000X0.212500X0.155000X-0.212500X0.155000X0*%
%ADD22RoundRect,0.237500X0.298724X-0.172251X0.156716X0.307159X-0.298724X0.172251X-0.156716X-0.307159X0*%
%ADD23RoundRect,0.237500X0.344345X0.018234X-0.035858X0.342958X-0.344345X-0.018234X0.035858X-0.342958X0*%
%ADD24RoundRect,0.237500X-0.100638X-0.329815X0.334540X-0.083604X0.100638X0.329815X-0.334540X0.083604X0*%
%ADD25RoundRect,0.237500X0.341498X-0.047805X0.030241X0.343499X-0.341498X0.047805X-0.030241X-0.343499X0*%
%ADD26RoundRect,0.237500X0.334540X0.083604X-0.100638X0.329815X-0.334540X-0.083604X0.100638X-0.329815X0*%
%ADD27RoundRect,0.237500X0.326102X-0.112087X0.095228X0.331418X-0.326102X0.112087X-0.095228X-0.331418X0*%
%ADD28RoundRect,0.237500X0.095228X-0.331418X0.326102X0.112087X-0.095228X0.331418X-0.326102X-0.112087X0*%
%ADD29RoundRect,0.237500X0.260368X-0.226086X0.212445X0.271612X-0.260368X0.226086X-0.212445X-0.271612X0*%
G04 APERTURE END LIST*
D10*
%TO.C,C4*%
X154465475Y-78393530D03*
X154465475Y-77258530D03*
%TD*%
D11*
%TO.C,J2*%
X153727975Y-87551030D03*
X154227975Y-87551030D03*
X154702975Y-87551030D03*
X155202975Y-87551030D03*
D12*
X157815475Y-90426030D03*
X151115475Y-90426030D03*
%TD*%
D10*
%TO.C,C3*%
X151715475Y-78393530D03*
X151715475Y-77258530D03*
%TD*%
D13*
%TO.C,R6*%
X157215475Y-76913530D03*
X157215475Y-78738530D03*
%TD*%
D14*
%TO.C,U2*%
X153195475Y-75201030D03*
X155735475Y-75201030D03*
X155735475Y-80951030D03*
X153195475Y-80951030D03*
%TD*%
D15*
%TO.C,R3*%
X155377975Y-84576030D03*
X153552975Y-84576030D03*
%TD*%
D13*
%TO.C,R2*%
X144215475Y-76913530D03*
X144215475Y-78738530D03*
%TD*%
D10*
%TO.C,C1*%
X138715475Y-78393530D03*
X138715475Y-77258530D03*
%TD*%
D15*
%TO.C,R1*%
X142377975Y-84576030D03*
X140552975Y-84576030D03*
%TD*%
D10*
%TO.C,C2*%
X141465475Y-78393530D03*
X141465475Y-77258530D03*
%TD*%
D11*
%TO.C,J1*%
X140727975Y-87551030D03*
X141227975Y-87551030D03*
X141702975Y-87551030D03*
X142202975Y-87551030D03*
D12*
X144815475Y-90426030D03*
X138115475Y-90426030D03*
%TD*%
D14*
%TO.C,U1*%
X140195475Y-75201030D03*
X142735475Y-75201030D03*
X142735475Y-80951030D03*
X140195475Y-80951030D03*
%TD*%
D16*
%TO.C,R5*%
X187606130Y-76268631D03*
X188993870Y-75083389D03*
%TD*%
D17*
%TO.C,R8*%
X181231955Y-69090140D03*
X182368045Y-67661880D03*
%TD*%
D18*
%TO.C,R12*%
X165240836Y-59450933D03*
X165759164Y-57701087D03*
%TD*%
D19*
%TO.C,R14*%
X156012541Y-56984309D03*
X156187459Y-55167711D03*
%TD*%
D20*
%TO.C,J1*%
X144250000Y-55226010D03*
X144750000Y-55226010D03*
X145250000Y-55226010D03*
X145750000Y-55226010D03*
X146250000Y-55226010D03*
X146750000Y-55226010D03*
X147250000Y-55226010D03*
X147750000Y-55226010D03*
X148250000Y-55226010D03*
X148750000Y-55226010D03*
X149250000Y-55226010D03*
X149750000Y-55226010D03*
X150250000Y-55226010D03*
X150750000Y-55226010D03*
X151250000Y-55226010D03*
X151750000Y-55226010D03*
D12*
X141650000Y-58476010D03*
X154350000Y-58476010D03*
%TD*%
D21*
%TO.C,C1*%
X147432500Y-53576010D03*
X148567500Y-53576010D03*
%TD*%
D22*
%TO.C,R11*%
X131159164Y-59200933D03*
X130640836Y-57451087D03*
%TD*%
D23*
%TO.C,R4*%
X108593870Y-75868631D03*
X107206130Y-74683389D03*
%TD*%
D24*
%TO.C,R2*%
X192505800Y-84425346D03*
X194094200Y-83526674D03*
%TD*%
D25*
%TO.C,R7*%
X114968045Y-69040140D03*
X113831955Y-67611880D03*
%TD*%
D26*
%TO.C,R1*%
X103594200Y-84025346D03*
X102005800Y-83126674D03*
%TD*%
D27*
%TO.C,R9*%
X122621346Y-63385407D03*
X121778654Y-61766613D03*
%TD*%
D28*
%TO.C,R10*%
X173778654Y-63485407D03*
X174621346Y-61866613D03*
%TD*%
D29*
%TO.C,R13*%
X140087459Y-56734309D03*
X139912541Y-54917711D03*
%TD*%
M02*
