%TF.GenerationSoftware,KiCad,Pcbnew,(6.0.4)*%
%TF.CreationDate,2022-08-25T18:27:48+09:00*%
%TF.ProjectId,total,746f7461-6c2e-46b6-9963-61645f706362,rev?*%
%TF.SameCoordinates,Original*%
%TF.FileFunction,Copper,L1,Top*%
%TF.FilePolarity,Positive*%
%FSLAX46Y46*%
G04 Gerber Fmt 4.6, Leading zero omitted, Abs format (unit mm)*
G04 Created by KiCad (PCBNEW (6.0.4)) date 2022-08-25 18:27:48*
%MOMM*%
%LPD*%
G01*
G04 APERTURE LIST*
G04 Aperture macros list*
%AMRoundRect*
0 Rectangle with rounded corners*
0 $1 Rounding radius*
0 $2 $3 $4 $5 $6 $7 $8 $9 X,Y pos of 4 corners*
0 Add a 4 corners polygon primitive as box body*
4,1,4,$2,$3,$4,$5,$6,$7,$8,$9,$2,$3,0*
0 Add four circle primitives for the rounded corners*
1,1,$1+$1,$2,$3*
1,1,$1+$1,$4,$5*
1,1,$1+$1,$6,$7*
1,1,$1+$1,$8,$9*
0 Add four rect primitives between the rounded corners*
20,1,$1+$1,$2,$3,$4,$5,0*
20,1,$1+$1,$4,$5,$6,$7,0*
20,1,$1+$1,$6,$7,$8,$9,0*
20,1,$1+$1,$8,$9,$2,$3,0*%
G04 Aperture macros list end*
%TA.AperFunction,SMDPad,CuDef*%
%ADD10RoundRect,0.155000X0.155000X-0.212500X0.155000X0.212500X-0.155000X0.212500X-0.155000X-0.212500X0*%
%TD*%
%TA.AperFunction,SMDPad,CuDef*%
%ADD11R,0.300000X1.000000*%
%TD*%
%TA.AperFunction,SMDPad,CuDef*%
%ADD12R,1.600000X1.600000*%
%TD*%
%TA.AperFunction,SMDPad,CuDef*%
%ADD13RoundRect,0.237500X-0.237500X0.250000X-0.237500X-0.250000X0.237500X-0.250000X0.237500X0.250000X0*%
%TD*%
%TA.AperFunction,ComponentPad*%
%ADD14C,2.286000*%
%TD*%
%TA.AperFunction,SMDPad,CuDef*%
%ADD15RoundRect,0.237500X0.250000X0.237500X-0.250000X0.237500X-0.250000X-0.237500X0.250000X-0.237500X0*%
%TD*%
%TA.AperFunction,SMDPad,CuDef*%
%ADD16RoundRect,0.237500X-0.035858X-0.342958X0.344345X-0.018234X0.035858X0.342958X-0.344345X0.018234X0*%
%TD*%
%TA.AperFunction,SMDPad,CuDef*%
%ADD17RoundRect,0.237500X0.030241X-0.343499X0.341498X0.047805X-0.030241X0.343499X-0.341498X-0.047805X0*%
%TD*%
%TA.AperFunction,SMDPad,CuDef*%
%ADD18RoundRect,0.237500X0.156716X-0.307159X0.298724X0.172251X-0.156716X0.307159X-0.298724X-0.172251X0*%
%TD*%
%TA.AperFunction,SMDPad,CuDef*%
%ADD19RoundRect,0.237500X0.212445X-0.271612X0.260368X0.226086X-0.212445X0.271612X-0.260368X-0.226086X0*%
%TD*%
%TA.AperFunction,SMDPad,CuDef*%
%ADD20R,0.300000X1.300000*%
%TD*%
%TA.AperFunction,SMDPad,CuDef*%
%ADD21RoundRect,0.155000X-0.212500X-0.155000X0.212500X-0.155000X0.212500X0.155000X-0.212500X0.155000X0*%
%TD*%
%TA.AperFunction,SMDPad,CuDef*%
%ADD22RoundRect,0.237500X0.298724X-0.172251X0.156716X0.307159X-0.298724X0.172251X-0.156716X-0.307159X0*%
%TD*%
%TA.AperFunction,SMDPad,CuDef*%
%ADD23RoundRect,0.237500X0.344345X0.018234X-0.035858X0.342958X-0.344345X-0.018234X0.035858X-0.342958X0*%
%TD*%
%TA.AperFunction,SMDPad,CuDef*%
%ADD24RoundRect,0.237500X-0.100638X-0.329815X0.334540X-0.083604X0.100638X0.329815X-0.334540X0.083604X0*%
%TD*%
%TA.AperFunction,SMDPad,CuDef*%
%ADD25RoundRect,0.237500X0.341498X-0.047805X0.030241X0.343499X-0.341498X0.047805X-0.030241X-0.343499X0*%
%TD*%
%TA.AperFunction,SMDPad,CuDef*%
%ADD26RoundRect,0.237500X0.334540X0.083604X-0.100638X0.329815X-0.334540X-0.083604X0.100638X-0.329815X0*%
%TD*%
%TA.AperFunction,SMDPad,CuDef*%
%ADD27RoundRect,0.237500X0.326102X-0.112087X0.095228X0.331418X-0.326102X0.112087X-0.095228X-0.331418X0*%
%TD*%
%TA.AperFunction,SMDPad,CuDef*%
%ADD28RoundRect,0.237500X0.095228X-0.331418X0.326102X0.112087X-0.095228X0.331418X-0.326102X-0.112087X0*%
%TD*%
%TA.AperFunction,SMDPad,CuDef*%
%ADD29RoundRect,0.237500X0.260368X-0.226086X0.212445X0.271612X-0.260368X0.226086X-0.212445X-0.271612X0*%
%TD*%
%TA.AperFunction,ViaPad*%
%ADD30C,0.800000*%
%TD*%
%TA.AperFunction,Conductor*%
%ADD31C,0.500000*%
%TD*%
%TA.AperFunction,Conductor*%
%ADD32C,0.300000*%
%TD*%
%TA.AperFunction,Conductor*%
%ADD33C,1.000000*%
%TD*%
G04 APERTURE END LIST*
D10*
%TO.P,C4,1*%
%TO.N,GND2*%
X154465475Y-78393530D03*
%TO.P,C4,2*%
%TO.N,+5V*%
X154465475Y-77258530D03*
%TD*%
D11*
%TO.P,J2,1,Pin_1*%
%TO.N,GND2*%
X153727975Y-87551030D03*
%TO.P,J2,2,Pin_2*%
%TO.N,unconnected-(J1-Pad2)*%
X154227975Y-87551030D03*
%TO.P,J2,3,Pin_3*%
%TO.N,Net-(J1-Pad3)*%
X154702975Y-87551030D03*
%TO.P,J2,4,Pin_4*%
%TO.N,+5V*%
X155202975Y-87551030D03*
D12*
%TO.P,J2,MP*%
%TO.N,N/C*%
X157815475Y-90426030D03*
X151115475Y-90426030D03*
%TD*%
D10*
%TO.P,C3,1*%
%TO.N,GND2*%
X151715475Y-78393530D03*
%TO.P,C3,2*%
%TO.N,+5V*%
X151715475Y-77258530D03*
%TD*%
D13*
%TO.P,R6,1*%
%TO.N,+5V*%
X157215475Y-76913530D03*
%TO.P,R6,2*%
%TO.N,Net-(J1-Pad3)*%
X157215475Y-78738530D03*
%TD*%
D14*
%TO.P,U2,1,Cathode*%
%TO.N,Net-(D1-Pad1)*%
X153195475Y-75201030D03*
%TO.P,U2,2,Vcc*%
%TO.N,+5V*%
X155735475Y-75201030D03*
%TO.P,U2,3,Vout*%
%TO.N,Net-(J1-Pad3)*%
X155735475Y-80951030D03*
%TO.P,U2,4,GND*%
%TO.N,GND2*%
X153195475Y-80951030D03*
%TD*%
D15*
%TO.P,R3,1*%
%TO.N,+5V*%
X155377975Y-84576030D03*
%TO.P,R3,2*%
%TO.N,Net-(D1-Pad2)*%
X153552975Y-84576030D03*
%TD*%
D13*
%TO.P,R2,1*%
%TO.N,+5V*%
X144215475Y-76913530D03*
%TO.P,R2,2*%
%TO.N,Net-(J1-Pad3)*%
X144215475Y-78738530D03*
%TD*%
D10*
%TO.P,C1,1*%
%TO.N,GND2*%
X138715475Y-78393530D03*
%TO.P,C1,2*%
%TO.N,+5V*%
X138715475Y-77258530D03*
%TD*%
D15*
%TO.P,R1,1*%
%TO.N,+5V*%
X142377975Y-84576030D03*
%TO.P,R1,2*%
%TO.N,Net-(D1-Pad2)*%
X140552975Y-84576030D03*
%TD*%
D10*
%TO.P,C2,1*%
%TO.N,GND2*%
X141465475Y-78393530D03*
%TO.P,C2,2*%
%TO.N,+5V*%
X141465475Y-77258530D03*
%TD*%
D11*
%TO.P,J1,1,Pin_1*%
%TO.N,GND2*%
X140727975Y-87551030D03*
%TO.P,J1,2,Pin_2*%
%TO.N,unconnected-(J1-Pad2)*%
X141227975Y-87551030D03*
%TO.P,J1,3,Pin_3*%
%TO.N,Net-(J1-Pad3)*%
X141702975Y-87551030D03*
%TO.P,J1,4,Pin_4*%
%TO.N,+5V*%
X142202975Y-87551030D03*
D12*
%TO.P,J1,MP*%
%TO.N,N/C*%
X144815475Y-90426030D03*
X138115475Y-90426030D03*
%TD*%
D14*
%TO.P,U1,1,Cathode*%
%TO.N,Net-(D1-Pad1)*%
X140195475Y-75201030D03*
%TO.P,U1,2,Vcc*%
%TO.N,+5V*%
X142735475Y-75201030D03*
%TO.P,U1,3,Vout*%
%TO.N,Net-(J1-Pad3)*%
X142735475Y-80951030D03*
%TO.P,U1,4,GND*%
%TO.N,GND2*%
X140195475Y-80951030D03*
%TD*%
D16*
%TO.P,R5,1*%
%TO.N,+3V3*%
X187606130Y-76268631D03*
%TO.P,R5,2*%
%TO.N,Net-(D5-Pad2)*%
X188993870Y-75083389D03*
%TD*%
D17*
%TO.P,R8,1*%
%TO.N,+3V3*%
X181231955Y-69090140D03*
%TO.P,R8,2*%
%TO.N,Net-(D7-Pad2)*%
X182368045Y-67661880D03*
%TD*%
D18*
%TO.P,R12,1*%
%TO.N,+3V3*%
X165240836Y-59450933D03*
%TO.P,R12,2*%
%TO.N,Net-(D11-Pad2)*%
X165759164Y-57701087D03*
%TD*%
D19*
%TO.P,R14,1*%
%TO.N,+3V3*%
X156012541Y-56984309D03*
%TO.P,R14,2*%
%TO.N,Net-(D13-Pad2)*%
X156187459Y-55167711D03*
%TD*%
D20*
%TO.P,J1,1,Pin_1*%
%TO.N,+3V3*%
X144250000Y-55226010D03*
%TO.P,J1,2,Pin_2*%
%TO.N,Net-(D1-Pad1)*%
X144750000Y-55226010D03*
%TO.P,J1,3,Pin_3*%
%TO.N,Net-(J1-Pad3)*%
X145250000Y-55226010D03*
%TO.P,J1,4,Pin_4*%
%TO.N,Net-(J1-Pad4)*%
X145750000Y-55226010D03*
%TO.P,J1,5,Pin_5*%
%TO.N,Net-(J1-Pad5)*%
X146250000Y-55226010D03*
%TO.P,J1,6,Pin_6*%
%TO.N,Net-(J1-Pad6)*%
X146750000Y-55226010D03*
%TO.P,J1,7,Pin_7*%
%TO.N,Net-(J1-Pad7)*%
X147250000Y-55226010D03*
%TO.P,J1,8,Pin_8*%
%TO.N,Net-(J1-Pad8)*%
X147750000Y-55226010D03*
%TO.P,J1,9,Pin_9*%
%TO.N,Net-(J1-Pad9)*%
X148250000Y-55226010D03*
%TO.P,J1,10,Pin_10*%
%TO.N,Net-(J1-Pad10)*%
X148750000Y-55226010D03*
%TO.P,J1,11,Pin_11*%
%TO.N,Net-(J1-Pad11)*%
X149250000Y-55226010D03*
%TO.P,J1,12,Pin_12*%
%TO.N,Net-(J1-Pad12)*%
X149750000Y-55226010D03*
%TO.P,J1,13,Pin_13*%
%TO.N,Net-(J1-Pad13)*%
X150250000Y-55226010D03*
%TO.P,J1,14,Pin_14*%
%TO.N,Net-(J1-Pad14)*%
X150750000Y-55226010D03*
%TO.P,J1,15,Pin_15*%
%TO.N,unconnected-(J1-Pad15)*%
X151250000Y-55226010D03*
%TO.P,J1,16,Pin_16*%
%TO.N,GND1*%
X151750000Y-55226010D03*
D12*
%TO.P,J1,MP*%
%TO.N,N/C*%
X141650000Y-58476010D03*
X154350000Y-58476010D03*
%TD*%
D21*
%TO.P,C1,1*%
%TO.N,+3V3*%
X147432500Y-53576010D03*
%TO.P,C1,2*%
%TO.N,GND1*%
X148567500Y-53576010D03*
%TD*%
D22*
%TO.P,R11,1*%
%TO.N,+3V3*%
X131159164Y-59200933D03*
%TO.P,R11,2*%
%TO.N,Net-(D10-Pad2)*%
X130640836Y-57451087D03*
%TD*%
D23*
%TO.P,R4,1*%
%TO.N,+3V3*%
X108593870Y-75868631D03*
%TO.P,R4,2*%
%TO.N,Net-(D4-Pad2)*%
X107206130Y-74683389D03*
%TD*%
D24*
%TO.P,R2,1*%
%TO.N,+3V3*%
X192505800Y-84425346D03*
%TO.P,R2,2*%
%TO.N,Net-(D2-Pad2)*%
X194094200Y-83526674D03*
%TD*%
D25*
%TO.P,R7,1*%
%TO.N,+3V3*%
X114968045Y-69040140D03*
%TO.P,R7,2*%
%TO.N,Net-(D6-Pad2)*%
X113831955Y-67611880D03*
%TD*%
D26*
%TO.P,R1,1*%
%TO.N,+3V3*%
X103594200Y-84025346D03*
%TO.P,R1,2*%
%TO.N,Net-(D1-Pad2)*%
X102005800Y-83126674D03*
%TD*%
D27*
%TO.P,R9,1*%
%TO.N,+3V3*%
X122621346Y-63385407D03*
%TO.P,R9,2*%
%TO.N,Net-(D8-Pad2)*%
X121778654Y-61766613D03*
%TD*%
D28*
%TO.P,R10,1*%
%TO.N,+3V3*%
X173778654Y-63485407D03*
%TO.P,R10,2*%
%TO.N,Net-(D9-Pad2)*%
X174621346Y-61866613D03*
%TD*%
D29*
%TO.P,R13,1*%
%TO.N,+3V3*%
X140087459Y-56734309D03*
%TO.P,R13,2*%
%TO.N,Net-(D12-Pad2)*%
X139912541Y-54917711D03*
%TD*%
D30*
%TO.N,Net-(D1-Pad2)*%
X152215475Y-83826030D03*
X139215475Y-83826030D03*
%TO.N,GND1*%
X168000000Y-62176010D03*
X175800000Y-66676010D03*
X188200000Y-79876010D03*
X151750000Y-57125032D03*
X110100000Y-76376010D03*
X116200000Y-69876010D03*
X105300000Y-83976010D03*
X139318242Y-58576010D03*
X159500000Y-59176010D03*
X155823816Y-58352194D03*
X132300000Y-60376010D03*
X182600000Y-72576010D03*
X124000000Y-64176010D03*
%TO.N,Net-(D1-Pad1)*%
X137900000Y-54176010D03*
%TO.N,Net-(D1-Pad2)*%
X103800000Y-77276010D03*
%TO.N,Net-(D2-Pad2)*%
X195250000Y-82826010D03*
%TO.N,Net-(J1-Pad3)*%
X142250000Y-61276510D03*
%TO.N,Net-(J1-Pad11)*%
X150500000Y-61276010D03*
%TO.N,Net-(D4-Pad2)*%
X110100000Y-69376010D03*
%TO.N,Net-(D5-Pad2)*%
X190000000Y-74076010D03*
%TO.N,Net-(D6-Pad2)*%
X117500000Y-62876010D03*
%TO.N,Net-(D7-Pad2)*%
X183300000Y-66676010D03*
%TO.N,Net-(D8-Pad2)*%
X126000000Y-57876010D03*
%TO.N,Net-(D9-Pad2)*%
X175300000Y-60776010D03*
%TO.N,Net-(D10-Pad2)*%
X135500000Y-54576010D03*
%TO.N,Net-(D11-Pad2)*%
X166250000Y-56326010D03*
%TO.N,Net-(D12-Pad2)*%
X145750000Y-53326010D03*
%TO.N,Net-(D13-Pad2)*%
X156250000Y-53826010D03*
%TO.N,Net-(J1-Pad4)*%
X143250000Y-61276510D03*
%TO.N,Net-(J1-Pad5)*%
X144250000Y-61276510D03*
%TO.N,Net-(J1-Pad6)*%
X145250000Y-61276010D03*
%TO.N,Net-(J1-Pad7)*%
X146250000Y-61276010D03*
%TO.N,Net-(J1-Pad8)*%
X147250000Y-61276010D03*
%TO.N,Net-(J1-Pad9)*%
X148500000Y-61276010D03*
%TO.N,Net-(J1-Pad10)*%
X149500000Y-61276010D03*
%TO.N,Net-(J1-Pad12)*%
X151500000Y-61276010D03*
%TO.N,Net-(J1-Pad13)*%
X152500000Y-61276010D03*
%TO.N,Net-(J1-Pad14)*%
X153500000Y-61276010D03*
%TD*%
D31*
%TO.N,+5V*%
X158089995Y-77788050D02*
X157215475Y-76913530D01*
%TO.N,GND2*%
X153195475Y-80951030D02*
X151715475Y-79471030D01*
%TO.N,+5V*%
X157215475Y-76913530D02*
X154810475Y-76913530D01*
D32*
%TO.N,GND2*%
X153727975Y-87551030D02*
X151515964Y-85339019D01*
D31*
%TO.N,+5V*%
X155377975Y-84576030D02*
X158089995Y-81864010D01*
D32*
%TO.N,GND2*%
X151515964Y-85339019D02*
X151515964Y-78593041D01*
D31*
X151715475Y-78393530D02*
X154465475Y-78393530D01*
D32*
X151515964Y-78593041D02*
X151715475Y-78393530D01*
D31*
%TO.N,+5V*%
X154810475Y-76913530D02*
X154465475Y-77258530D01*
D32*
X155202975Y-87551030D02*
X155202975Y-84751030D01*
D31*
X157215475Y-76913530D02*
X157215475Y-76681030D01*
X157215475Y-76681030D02*
X155735475Y-75201030D01*
D32*
X155202975Y-84751030D02*
X155377975Y-84576030D01*
D31*
%TO.N,GND2*%
X151715475Y-79471030D02*
X151715475Y-78393530D01*
%TO.N,+5V*%
X158089995Y-81864010D02*
X158089995Y-77788050D01*
X151715475Y-77258530D02*
X154465475Y-77258530D01*
D32*
%TO.N,Net-(J1-Pad3)*%
X154702975Y-87551030D02*
X154702975Y-86063530D01*
D31*
%TO.N,Net-(D1-Pad2)*%
X152215475Y-83826030D02*
X152965475Y-84576030D01*
D32*
%TO.N,Net-(J1-Pad3)*%
X154702975Y-86063530D02*
X154465475Y-85826030D01*
D31*
X157215475Y-78738530D02*
X157215475Y-79471030D01*
D32*
X154465475Y-85826030D02*
X154465475Y-82221030D01*
D31*
X157215475Y-79471030D02*
X155735475Y-80951030D01*
D32*
X154465475Y-82221030D02*
X155735475Y-80951030D01*
D31*
%TO.N,Net-(D1-Pad2)*%
X152965475Y-84576030D02*
X153552975Y-84576030D01*
D32*
%TO.N,GND2*%
X140727975Y-87551030D02*
X138515964Y-85339019D01*
D31*
X138715475Y-79471030D02*
X138715475Y-78393530D01*
X140195475Y-80951030D02*
X138715475Y-79471030D01*
D32*
X138515964Y-78593041D02*
X138715475Y-78393530D01*
D31*
X138715475Y-78393530D02*
X141465475Y-78393530D01*
D32*
X138515964Y-85339019D02*
X138515964Y-78593041D01*
D31*
%TO.N,+5V*%
X142377975Y-84576030D02*
X145089995Y-81864010D01*
X144215475Y-76913530D02*
X141810475Y-76913530D01*
X145089995Y-77788050D02*
X144215475Y-76913530D01*
X138715475Y-77258530D02*
X141465475Y-77258530D01*
X145089995Y-81864010D02*
X145089995Y-77788050D01*
D32*
X142202975Y-87551030D02*
X142202975Y-84751030D01*
X142202975Y-84751030D02*
X142377975Y-84576030D01*
D31*
X144215475Y-76681030D02*
X142735475Y-75201030D01*
X141810475Y-76913530D02*
X141465475Y-77258530D01*
X144215475Y-76913530D02*
X144215475Y-76681030D01*
%TO.N,Net-(D1-Pad2)*%
X139215475Y-83826030D02*
X139965475Y-84576030D01*
X139965475Y-84576030D02*
X140552975Y-84576030D01*
D32*
%TO.N,Net-(J1-Pad3)*%
X141465475Y-85826030D02*
X141465475Y-82221030D01*
D31*
X144215475Y-78738530D02*
X144215475Y-79471030D01*
D32*
X141702975Y-87551030D02*
X141702975Y-86063530D01*
X141465475Y-82221030D02*
X142735475Y-80951030D01*
X141702975Y-86063530D02*
X141465475Y-85826030D01*
D31*
X144215475Y-79471030D02*
X142735475Y-80951030D01*
D33*
%TO.N,+3V3*%
X133340650Y-58079805D02*
X134684536Y-57685672D01*
X104635128Y-81280456D02*
X103967875Y-82511795D01*
X109341026Y-74330693D02*
X110236637Y-73253967D01*
X167586682Y-59890695D02*
X166291831Y-59357021D01*
X138775251Y-56732483D02*
X139244063Y-56650765D01*
X173778654Y-63076582D02*
X172600378Y-62383332D01*
X187606130Y-75547796D02*
X187310546Y-75154519D01*
X128092035Y-60029781D02*
X129383037Y-59487023D01*
X160977809Y-57593070D02*
X159620893Y-57246506D01*
X114648921Y-68724931D02*
X114652836Y-68724931D01*
D32*
X145932980Y-52076490D02*
X138099520Y-52076490D01*
X140087459Y-56734309D02*
X140237459Y-56884309D01*
X142000000Y-62076010D02*
X140250000Y-60326010D01*
D33*
X165240836Y-59450933D02*
X165240836Y-59118392D01*
D32*
X156012541Y-56984309D02*
X153620851Y-56984309D01*
D33*
X130873434Y-58915203D02*
X131159164Y-59200933D01*
D32*
X153689259Y-62076010D02*
X142000000Y-62076010D01*
D33*
X168865965Y-60460630D02*
X167586682Y-59890695D01*
X181231955Y-68617116D02*
X180587249Y-68041262D01*
X114500000Y-68859846D02*
X114648921Y-68724931D01*
X122280932Y-63044993D02*
X122621346Y-63385407D01*
X174994013Y-63837427D02*
X174432523Y-63485407D01*
X106072322Y-78876648D02*
X105336778Y-80068451D01*
X173778654Y-63485407D02*
X173778654Y-63076582D01*
X107642615Y-76557612D02*
X106841147Y-77706046D01*
X182650179Y-69936812D02*
X181754398Y-69090140D01*
X189738582Y-78581994D02*
X188961525Y-77416827D01*
X192505800Y-84425346D02*
X192825460Y-84105686D01*
X159620893Y-57246506D02*
X158254709Y-56938298D01*
X171373779Y-61707428D02*
X170128622Y-61066346D01*
X187606130Y-76268631D02*
X187606130Y-75547796D01*
X108593870Y-75868631D02*
X108593870Y-75282242D01*
X110236637Y-73253967D02*
X111162215Y-72202913D01*
X132008423Y-58511633D02*
X133340650Y-58079805D01*
X191868581Y-82202229D02*
X191192673Y-80975623D01*
X139288009Y-56694711D02*
X140047861Y-56694711D01*
X158254709Y-56938298D02*
X156880450Y-56668713D01*
D32*
X154500000Y-60826010D02*
X154500000Y-61265269D01*
D33*
X108152892Y-75868631D02*
X107642615Y-76557612D01*
X164982494Y-58860050D02*
X163659677Y-58400163D01*
X140047861Y-56694711D02*
X140087459Y-56734309D01*
X186437916Y-74059147D02*
X185534748Y-72988761D01*
X118415929Y-65631438D02*
X119553011Y-64813835D01*
X178421491Y-66265465D02*
X177301967Y-65424039D01*
D32*
X138099520Y-52076490D02*
X137200489Y-52975521D01*
D33*
X121893940Y-63276368D02*
X122280932Y-63044993D01*
X192509664Y-83447389D02*
X191868581Y-82202229D01*
X119553011Y-64813835D02*
X120712630Y-64028621D01*
X162324448Y-57977730D02*
X160977809Y-57593070D01*
X183639198Y-70925832D02*
X183146424Y-70429574D01*
X179516865Y-67138096D02*
X178421491Y-66265465D01*
X165598071Y-59093698D02*
X165240836Y-59450933D01*
X181231955Y-69090140D02*
X181231955Y-68617116D01*
X108593870Y-75282242D02*
X109341026Y-74330693D01*
X187310546Y-75154519D02*
X186437916Y-74059147D01*
X125558375Y-61223338D02*
X126816792Y-60608714D01*
X136038979Y-57329559D02*
X136205603Y-57290734D01*
X137402937Y-57011740D02*
X138053371Y-56879381D01*
X114968045Y-68435822D02*
X115149160Y-68271742D01*
X122621346Y-63385407D02*
X122621346Y-62841465D01*
X188147904Y-76268631D02*
X187606130Y-76268631D01*
D32*
X143591701Y-56884309D02*
X144250000Y-56226010D01*
D33*
X181754398Y-69090140D02*
X181231955Y-69090140D01*
X191192673Y-80975623D02*
X190482493Y-79768573D01*
X188961525Y-77416827D02*
X188151970Y-76274040D01*
X172600378Y-62383332D02*
X171373779Y-61707428D01*
X129383037Y-59487023D02*
X130688826Y-58980845D01*
D32*
X144250000Y-56226010D02*
X144250000Y-55226010D01*
X140250000Y-56896850D02*
X140087459Y-56734309D01*
D33*
X105336778Y-80068451D02*
X104635128Y-81280456D01*
X136205603Y-57290734D02*
X137402937Y-57011740D01*
X114652836Y-68724931D02*
X114968045Y-69040140D01*
X114968045Y-69040140D02*
X114968045Y-68435822D01*
X184601814Y-71944281D02*
X183639198Y-70925832D01*
X166291831Y-59357021D02*
X165598071Y-59093698D01*
D32*
X137200489Y-52975521D02*
X137200489Y-56026499D01*
D33*
X115149160Y-68271742D02*
X116213164Y-67361050D01*
X156407199Y-56589651D02*
X156012541Y-56984309D01*
X103594200Y-83250309D02*
X103594200Y-84025346D01*
X124317728Y-61873194D02*
X125558375Y-61223338D01*
D32*
X137200489Y-56026499D02*
X138053371Y-56879381D01*
D33*
X156880450Y-56668713D02*
X156407199Y-56589651D01*
X130688826Y-58980845D02*
X130873434Y-58915203D01*
X170128622Y-61066346D02*
X168865965Y-60460630D01*
X134684536Y-57685672D02*
X136038979Y-57329559D01*
X120712630Y-64028621D02*
X121893940Y-63276368D01*
X117302395Y-66480702D02*
X118415929Y-65631438D01*
X139244063Y-56650765D02*
X139288009Y-56694711D01*
D32*
X140237459Y-56884309D02*
X143591701Y-56884309D01*
D33*
X177178052Y-65336256D02*
X176159175Y-64614480D01*
X190482493Y-79768573D02*
X189738582Y-78581994D01*
X116213164Y-67361050D02*
X117302395Y-66480702D01*
X131159164Y-58813606D02*
X132008423Y-58511633D01*
X176159175Y-64614480D02*
X174994013Y-63837427D01*
X122621346Y-62841465D02*
X123095991Y-62557683D01*
D32*
X147432500Y-53576010D02*
X145932980Y-52076490D01*
X140250000Y-60326010D02*
X140250000Y-56896850D01*
D33*
X131159164Y-59200933D02*
X131159164Y-58813606D01*
X174432523Y-63485407D02*
X173778654Y-63485407D01*
X192825460Y-84105686D02*
X192509664Y-83447389D01*
X165240836Y-59118392D02*
X164982494Y-58860050D01*
X111162215Y-72202913D02*
X114500000Y-68865128D01*
D32*
X152750000Y-59076010D02*
X154500000Y-60826010D01*
D33*
X163659677Y-58400163D02*
X162324448Y-57977730D01*
X123095991Y-62557683D02*
X124317728Y-61873194D01*
X188151970Y-76274040D02*
X188147904Y-76268631D01*
X103967875Y-82511795D02*
X103594200Y-83250309D01*
X180587249Y-68041262D02*
X179516865Y-67138096D01*
X108593870Y-75868631D02*
X108152892Y-75868631D01*
D32*
X153620851Y-56984309D02*
X152750000Y-57855160D01*
D33*
X114500000Y-68865128D02*
X114500000Y-68859846D01*
D32*
X152750000Y-57855160D02*
X152750000Y-59076010D01*
D33*
X126816792Y-60608714D02*
X128092035Y-60029781D01*
D32*
X154500000Y-61265269D02*
X153689259Y-62076010D01*
D33*
X106841147Y-77706046D02*
X106072322Y-78876648D01*
X185534748Y-72988761D02*
X184601814Y-71944281D01*
X177301967Y-65424039D02*
X177178052Y-65336256D01*
X138053371Y-56879381D02*
X138775251Y-56732483D01*
X183146424Y-70429574D02*
X182650179Y-69936812D01*
%TO.N,GND1*%
X166477694Y-61417520D02*
X167742551Y-61968338D01*
X180353623Y-70296547D02*
X181357563Y-71244222D01*
X120480972Y-66408416D02*
X121621152Y-65631627D01*
X117201358Y-68931214D02*
X118270166Y-68058889D01*
X135388766Y-59398590D02*
X136724693Y-59054350D01*
X132062101Y-60469324D02*
X131608393Y-60603719D01*
X158603685Y-58896687D02*
X159418051Y-59094061D01*
D32*
X151300000Y-53576010D02*
X151750000Y-54026010D01*
D33*
X128887854Y-61688390D02*
X127631049Y-62257385D01*
X126391149Y-62862371D02*
X125169214Y-63502829D01*
X108055619Y-79197159D02*
X108832404Y-78056984D01*
X122783206Y-64888043D02*
X123966254Y-64178227D01*
X162595249Y-59986799D02*
X163902963Y-60426335D01*
X168184207Y-62176010D02*
X168991093Y-62555417D01*
X182331781Y-72218440D02*
X182600000Y-72502584D01*
X181357563Y-71244222D02*
X181846437Y-71729586D01*
X188200000Y-79593252D02*
X188200000Y-79876010D01*
X125169214Y-63502829D02*
X124000000Y-64159281D01*
X155823816Y-58352194D02*
X155896840Y-58363329D01*
X132190792Y-60469324D02*
X132062101Y-60469324D01*
X138070077Y-58748731D02*
X139257077Y-58514845D01*
X183279465Y-73222389D02*
X184197156Y-74252484D01*
X175891246Y-66676010D02*
X176080590Y-66809042D01*
X132300000Y-60360116D02*
X132190792Y-60469324D01*
X170222123Y-63178196D02*
X171434706Y-63836197D01*
X167836508Y-62012518D02*
X168000000Y-62176010D01*
X168000000Y-62176010D02*
X168184207Y-62176010D01*
X131608393Y-60603719D02*
X131448042Y-60660199D01*
X116200000Y-69797748D02*
X117201358Y-68931214D01*
X171434706Y-63836197D02*
X172627816Y-64528866D01*
X161275412Y-59585132D02*
X162595249Y-59986799D01*
D32*
X151750000Y-55226010D02*
X151750000Y-57125032D01*
D33*
X175837654Y-66638356D02*
X175800000Y-66676010D01*
X109641709Y-76939689D02*
X110075312Y-76376010D01*
X173800497Y-65255647D02*
X174951766Y-66015934D01*
X110100000Y-76343915D02*
X110482878Y-75846177D01*
X159418051Y-59094061D02*
X159500000Y-59176010D01*
X105300000Y-83976010D02*
X105300000Y-83941137D01*
X182600000Y-72502584D02*
X182600000Y-72576010D01*
X175800000Y-66676010D02*
X175891246Y-66676010D01*
X118270166Y-68058889D02*
X119363674Y-67217722D01*
X172627816Y-64528866D02*
X173800497Y-65255647D01*
X179323526Y-69378854D02*
X180353623Y-70296547D01*
X159944514Y-59221658D02*
X161275412Y-59585132D01*
X174951766Y-66015934D02*
X175837654Y-66638356D01*
X110075312Y-76376010D02*
X110100000Y-76376010D01*
X177186099Y-67634358D02*
X178267384Y-68491203D01*
X139257077Y-58514845D02*
X139318242Y-58576010D01*
X181846437Y-71729586D02*
X182331781Y-72218440D01*
X165197502Y-60903386D02*
X166477694Y-61417520D01*
X110100000Y-76376010D02*
X110100000Y-76343915D01*
X132300000Y-60360116D02*
X132749321Y-60201853D01*
X168991093Y-62555417D02*
X170222123Y-63178196D01*
X130160581Y-61155829D02*
X128887854Y-61688390D01*
X155896840Y-58363329D02*
X157254102Y-58610502D01*
X184197156Y-74252484D02*
X185084807Y-75308626D01*
X123966254Y-64178227D02*
X124000000Y-64159281D01*
X134063230Y-59781209D02*
X135388766Y-59398590D01*
X167742551Y-61968338D02*
X167836508Y-62012518D01*
D32*
X151750000Y-54026010D02*
X151750000Y-55226010D01*
D33*
X176080590Y-66809042D02*
X177186099Y-67634358D01*
X127631049Y-62257385D02*
X126391149Y-62862371D01*
X107312033Y-80359216D02*
X108055619Y-79197159D01*
X159500000Y-59176010D02*
X159549975Y-59126035D01*
X185941654Y-76389914D02*
X186766968Y-77495421D01*
X121621152Y-65631627D02*
X122783206Y-64888043D01*
X116200000Y-69876010D02*
X116200000Y-69797748D01*
D32*
X148567500Y-53576010D02*
X151300000Y-53576010D01*
D33*
X131448042Y-60660199D02*
X130160581Y-61155829D01*
X182669311Y-72576010D02*
X183279465Y-73222389D01*
X132300000Y-60376010D02*
X132300000Y-60360116D01*
X111355203Y-74777369D02*
X112257992Y-73734116D01*
X112257992Y-73734116D02*
X116116098Y-69876010D01*
X116116098Y-69876010D02*
X116200000Y-69876010D01*
X136724693Y-59054350D02*
X138070077Y-58748731D01*
X106602220Y-81542259D02*
X107312033Y-80359216D01*
X163902963Y-60426335D02*
X165197502Y-60903386D01*
X159549975Y-59126035D02*
X159944514Y-59221658D01*
X105300000Y-83941137D02*
X105926820Y-82745222D01*
X124000000Y-64159281D02*
X124000000Y-64176010D01*
X186766968Y-77495421D02*
X187560077Y-78624245D01*
X182600000Y-72576010D02*
X182669311Y-72576010D01*
X187560077Y-78624245D02*
X188200000Y-79593252D01*
X110482878Y-75846177D02*
X111355203Y-74777369D01*
X108832404Y-78056984D02*
X109641709Y-76939689D01*
X185084807Y-75308626D02*
X185941654Y-76389914D01*
X132749321Y-60201853D02*
X134063230Y-59781209D01*
X157254102Y-58610502D02*
X158603685Y-58896687D01*
X119363674Y-67217722D02*
X120480972Y-66408416D01*
X105926820Y-82745222D02*
X106602220Y-81542259D01*
X178267384Y-68491203D02*
X179323526Y-69378854D01*
D32*
%TO.N,Net-(D1-Pad1)*%
X143975000Y-54076010D02*
X142225000Y-55826010D01*
X144750000Y-54326988D02*
X144499022Y-54076010D01*
X144499022Y-54076010D02*
X143975000Y-54076010D01*
X138500000Y-55826010D02*
X137900000Y-55226010D01*
X144750000Y-55226010D02*
X144750000Y-54326988D01*
X137900000Y-55226010D02*
X137900000Y-54176010D01*
X142225000Y-55826010D02*
X138500000Y-55826010D01*
D33*
%TO.N,Net-(D1-Pad2)*%
X101200000Y-82320874D02*
X102005800Y-83126674D01*
X103462278Y-77712714D02*
X102714638Y-78945049D01*
X103800000Y-77276010D02*
X103743893Y-77276010D01*
X102714638Y-78945049D02*
X102001080Y-80197449D01*
X102001080Y-80197449D02*
X101322169Y-81468911D01*
X101322169Y-81468911D02*
X101200000Y-81713641D01*
X101200000Y-81713641D02*
X101200000Y-82320874D01*
X103743893Y-77276010D02*
X103462278Y-77712714D01*
%TO.N,Net-(D2-Pad2)*%
X195250000Y-82826010D02*
X194794864Y-82826010D01*
X194794864Y-82826010D02*
X194094200Y-83526674D01*
D32*
%TO.N,Net-(J1-Pad3)*%
X145250000Y-58276510D02*
X145250000Y-55226010D01*
X142250000Y-61276510D02*
X145250000Y-58276510D01*
%TO.N,Net-(J1-Pad11)*%
X150500000Y-61276010D02*
X149250000Y-60026010D01*
X149250000Y-60026010D02*
X149250000Y-55226010D01*
D33*
%TO.N,Net-(D4-Pad2)*%
X106782107Y-73002134D02*
X106600000Y-73239180D01*
X108630731Y-70790484D02*
X107691245Y-71883632D01*
X106600000Y-73239180D02*
X106600000Y-74077259D01*
X106600000Y-74077259D02*
X107206130Y-74683389D01*
X109933351Y-69376010D02*
X109599847Y-69723530D01*
X109599847Y-69723530D02*
X108630731Y-70790484D01*
X107691245Y-71883632D02*
X106782107Y-73002134D01*
X110100000Y-69376010D02*
X109933351Y-69376010D01*
%TO.N,Net-(D5-Pad2)*%
X190000000Y-74076010D02*
X190000000Y-74077259D01*
X190000000Y-74077259D02*
X188993870Y-75083389D01*
%TO.N,Net-(D6-Pad2)*%
X113200000Y-66226127D02*
X113200000Y-66979925D01*
X113757837Y-65733239D02*
X113200000Y-66226127D01*
X115994635Y-63915132D02*
X114863753Y-64808852D01*
X117400425Y-62876010D02*
X117149601Y-63052781D01*
X117149601Y-63052781D02*
X115994635Y-63915132D01*
X117500000Y-62876010D02*
X117400425Y-62876010D01*
X113200000Y-66979925D02*
X113831955Y-67611880D01*
X114863753Y-64808852D02*
X113757837Y-65733239D01*
%TO.N,Net-(D7-Pad2)*%
X182368045Y-67661880D02*
X182368045Y-67607965D01*
X182368045Y-67607965D02*
X183300000Y-66676010D01*
%TO.N,Net-(D8-Pad2)*%
X121778654Y-60143684D02*
X121992729Y-59929609D01*
X124535536Y-58571851D02*
X125833870Y-57945822D01*
X121778654Y-61766613D02*
X121778654Y-60143684D01*
X125833870Y-57945822D02*
X125989425Y-57876010D01*
X125989425Y-57876010D02*
X126000000Y-57876010D01*
X121992729Y-59929609D02*
X123254841Y-59233274D01*
X123254841Y-59233274D02*
X124535536Y-58571851D01*
%TO.N,Net-(D9-Pad2)*%
X174621346Y-61454664D02*
X175300000Y-60776010D01*
X174621346Y-61866613D02*
X174621346Y-61454664D01*
%TO.N,Net-(D10-Pad2)*%
X130640836Y-56118130D02*
X130640836Y-57451087D01*
X135333260Y-54590465D02*
X133939289Y-54957155D01*
X135480105Y-54556115D02*
X135333260Y-54590465D01*
X132555899Y-55361950D02*
X131184136Y-55804544D01*
X131184136Y-55804544D02*
X130828971Y-55929995D01*
X130828971Y-55929995D02*
X130640836Y-56118130D01*
X135500000Y-54576010D02*
X135480105Y-54556115D01*
X133939289Y-54957155D02*
X132555899Y-55361950D01*
%TO.N,Net-(D11-Pad2)*%
X166250000Y-57210251D02*
X165759164Y-57701087D01*
X166250000Y-56326010D02*
X166250000Y-57210251D01*
%TO.N,Net-(D12-Pad2)*%
X142424924Y-53337226D02*
X141076090Y-53499920D01*
X143860152Y-53203940D02*
X142424924Y-53337226D01*
X139912541Y-54663469D02*
X139912541Y-54917711D01*
X145298500Y-53110078D02*
X143860152Y-53203940D01*
X145750000Y-53326010D02*
X145525500Y-53101510D01*
X141076090Y-53499920D02*
X139912541Y-54663469D01*
X145525500Y-53101510D02*
X145298500Y-53110078D01*
%TO.N,Net-(D13-Pad2)*%
X156250000Y-53826010D02*
X156187459Y-53888551D01*
X156187459Y-53888551D02*
X156187459Y-55167711D01*
D32*
%TO.N,Net-(J1-Pad4)*%
X145750000Y-58776510D02*
X145750000Y-55226010D01*
X143250000Y-61276510D02*
X145750000Y-58776510D01*
%TO.N,Net-(J1-Pad5)*%
X144250000Y-61276510D02*
X146250000Y-59276510D01*
X146250000Y-59276510D02*
X146250000Y-55226010D01*
%TO.N,Net-(J1-Pad6)*%
X146750000Y-59776010D02*
X146750000Y-55226010D01*
X145250000Y-61276010D02*
X146750000Y-59776010D01*
%TO.N,Net-(J1-Pad7)*%
X147250000Y-60276010D02*
X147250000Y-55226010D01*
X146250000Y-61276010D02*
X147250000Y-60276010D01*
%TO.N,Net-(J1-Pad8)*%
X147250000Y-61236751D02*
X147750000Y-60736751D01*
X147750000Y-60736751D02*
X147750000Y-55226010D01*
X147250000Y-61276010D02*
X147250000Y-61236751D01*
%TO.N,Net-(J1-Pad9)*%
X148250000Y-61026010D02*
X148250000Y-55226010D01*
X148500000Y-61276010D02*
X148250000Y-61026010D01*
%TO.N,Net-(J1-Pad10)*%
X148750000Y-60161728D02*
X148750000Y-55226010D01*
X149500000Y-60911728D02*
X148750000Y-60161728D01*
X149500000Y-61276010D02*
X149500000Y-60911728D01*
%TO.N,Net-(J1-Pad12)*%
X151500000Y-61276010D02*
X149750000Y-59526010D01*
X149750000Y-59526010D02*
X149750000Y-55226010D01*
%TO.N,Net-(J1-Pad13)*%
X150250000Y-59026010D02*
X150250000Y-55226010D01*
X152500000Y-61276010D02*
X150250000Y-59026010D01*
%TO.N,Net-(J1-Pad14)*%
X150750000Y-58526010D02*
X150750000Y-55226010D01*
X153500000Y-61276010D02*
X150750000Y-58526010D01*
%TD*%
M02*
