%TF.GenerationSoftware,KiCad,Pcbnew,(6.0.4)*%
%TF.CreationDate,2022-10-11T18:47:42+09:00*%
%TF.ProjectId,robotrace_v1_Markersensor,726f626f-7472-4616-9365-5f76315f4d61,rev?*%
%TF.SameCoordinates,Original*%
%TF.FileFunction,Legend,Top*%
%TF.FilePolarity,Positive*%
%FSLAX46Y46*%
G04 Gerber Fmt 4.6, Leading zero omitted, Abs format (unit mm)*
G04 Created by KiCad (PCBNEW (6.0.4)) date 2022-10-11 18:47:42*
%MOMM*%
%LPD*%
G01*
G04 APERTURE LIST*
%ADD10C,0.150000*%
%ADD11C,0.120000*%
G04 APERTURE END LIST*
D10*
%TO.C,R2*%
X151583333Y-109202380D02*
X151250000Y-108726190D01*
X151011904Y-109202380D02*
X151011904Y-108202380D01*
X151392857Y-108202380D01*
X151488095Y-108250000D01*
X151535714Y-108297619D01*
X151583333Y-108392857D01*
X151583333Y-108535714D01*
X151535714Y-108630952D01*
X151488095Y-108678571D01*
X151392857Y-108726190D01*
X151011904Y-108726190D01*
X151964285Y-108297619D02*
X152011904Y-108250000D01*
X152107142Y-108202380D01*
X152345238Y-108202380D01*
X152440476Y-108250000D01*
X152488095Y-108297619D01*
X152535714Y-108392857D01*
X152535714Y-108488095D01*
X152488095Y-108630952D01*
X151916666Y-109202380D01*
X152535714Y-109202380D01*
%TO.C,C1*%
X151583333Y-100857142D02*
X151535714Y-100904761D01*
X151392857Y-100952380D01*
X151297619Y-100952380D01*
X151154761Y-100904761D01*
X151059523Y-100809523D01*
X151011904Y-100714285D01*
X150964285Y-100523809D01*
X150964285Y-100380952D01*
X151011904Y-100190476D01*
X151059523Y-100095238D01*
X151154761Y-100000000D01*
X151297619Y-99952380D01*
X151392857Y-99952380D01*
X151535714Y-100000000D01*
X151583333Y-100047619D01*
X152535714Y-100952380D02*
X151964285Y-100952380D01*
X152250000Y-100952380D02*
X152250000Y-99952380D01*
X152154761Y-100095238D01*
X152059523Y-100190476D01*
X151964285Y-100238095D01*
%TO.C,R1*%
X146952380Y-104666666D02*
X146476190Y-105000000D01*
X146952380Y-105238095D02*
X145952380Y-105238095D01*
X145952380Y-104857142D01*
X146000000Y-104761904D01*
X146047619Y-104714285D01*
X146142857Y-104666666D01*
X146285714Y-104666666D01*
X146380952Y-104714285D01*
X146428571Y-104761904D01*
X146476190Y-104857142D01*
X146476190Y-105238095D01*
X146952380Y-103714285D02*
X146952380Y-104285714D01*
X146952380Y-104000000D02*
X145952380Y-104000000D01*
X146095238Y-104095238D01*
X146190476Y-104190476D01*
X146238095Y-104285714D01*
%TO.C,C2*%
X151583333Y-103607142D02*
X151535714Y-103654761D01*
X151392857Y-103702380D01*
X151297619Y-103702380D01*
X151154761Y-103654761D01*
X151059523Y-103559523D01*
X151011904Y-103464285D01*
X150964285Y-103273809D01*
X150964285Y-103130952D01*
X151011904Y-102940476D01*
X151059523Y-102845238D01*
X151154761Y-102750000D01*
X151297619Y-102702380D01*
X151392857Y-102702380D01*
X151535714Y-102750000D01*
X151583333Y-102797619D01*
X151964285Y-102797619D02*
X152011904Y-102750000D01*
X152107142Y-102702380D01*
X152345238Y-102702380D01*
X152440476Y-102750000D01*
X152488095Y-102797619D01*
X152535714Y-102892857D01*
X152535714Y-102988095D01*
X152488095Y-103130952D01*
X151916666Y-103702380D01*
X152535714Y-103702380D01*
%TO.C,J1*%
X142681666Y-100202380D02*
X142681666Y-100916666D01*
X142634047Y-101059523D01*
X142538809Y-101154761D01*
X142395952Y-101202380D01*
X142300714Y-101202380D01*
X143681666Y-101202380D02*
X143110238Y-101202380D01*
X143395952Y-101202380D02*
X143395952Y-100202380D01*
X143300714Y-100345238D01*
X143205476Y-100440476D01*
X143110238Y-100488095D01*
D11*
%TO.C,R2*%
X152004724Y-107772500D02*
X151495276Y-107772500D01*
X152004724Y-106727500D02*
X151495276Y-106727500D01*
%TO.C,C1*%
X151634165Y-101390000D02*
X151865835Y-101390000D01*
X151634165Y-102110000D02*
X151865835Y-102110000D01*
%TO.C,R1*%
X145522500Y-104754724D02*
X145522500Y-104245276D01*
X144477500Y-104754724D02*
X144477500Y-104245276D01*
%TO.C,C2*%
X151634165Y-104860000D02*
X151865835Y-104860000D01*
X151634165Y-104140000D02*
X151865835Y-104140000D01*
%TO.C,J1*%
X140050000Y-101800000D02*
X140050000Y-107150000D01*
X142005000Y-101150000D02*
X140050000Y-101150000D01*
X138250000Y-101150000D02*
X138050000Y-101150000D01*
X138050000Y-101800000D02*
X138250000Y-101800000D01*
X138050000Y-107850000D02*
X138250000Y-107850000D01*
X142005000Y-107850000D02*
X142005000Y-105647500D01*
X138050000Y-107850000D02*
X138050000Y-107200000D01*
X138050000Y-101800000D02*
X138050000Y-101150000D01*
X142005000Y-103352500D02*
X142005000Y-101150000D01*
X140050000Y-107850000D02*
X142005000Y-107850000D01*
X142525000Y-103352500D02*
X142005000Y-103352500D01*
X138050000Y-107200000D02*
X138250000Y-107200000D01*
%TD*%
M02*
