%TF.GenerationSoftware,KiCad,Pcbnew,(6.0.4)*%
%TF.CreationDate,2022-10-11T18:47:42+09:00*%
%TF.ProjectId,robotrace_v1_Markersensor,726f626f-7472-4616-9365-5f76315f4d61,rev?*%
%TF.SameCoordinates,Original*%
%TF.FileFunction,Legend,Bot*%
%TF.FilePolarity,Positive*%
%FSLAX46Y46*%
G04 Gerber Fmt 4.6, Leading zero omitted, Abs format (unit mm)*
G04 Created by KiCad (PCBNEW (6.0.4)) date 2022-10-11 18:47:42*
%MOMM*%
%LPD*%
G01*
G04 APERTURE LIST*
%ADD10C,0.150000*%
%ADD11C,0.120000*%
G04 APERTURE END LIST*
D10*
%TO.C,U1*%
X152261904Y-104722380D02*
X152261904Y-105531904D01*
X152214285Y-105627142D01*
X152166666Y-105674761D01*
X152071428Y-105722380D01*
X151880952Y-105722380D01*
X151785714Y-105674761D01*
X151738095Y-105627142D01*
X151690476Y-105531904D01*
X151690476Y-104722380D01*
X150690476Y-105722380D02*
X151261904Y-105722380D01*
X150976190Y-105722380D02*
X150976190Y-104722380D01*
X151071428Y-104865238D01*
X151166666Y-104960476D01*
X151261904Y-105008095D01*
%TO.C,D1*%
X132952380Y-103761904D02*
X131952380Y-103761904D01*
X131952380Y-104000000D01*
X132000000Y-104142857D01*
X132095238Y-104238095D01*
X132190476Y-104285714D01*
X132380952Y-104333333D01*
X132523809Y-104333333D01*
X132714285Y-104285714D01*
X132809523Y-104238095D01*
X132904761Y-104142857D01*
X132952380Y-104000000D01*
X132952380Y-103761904D01*
X132952380Y-105285714D02*
X132952380Y-104714285D01*
X132952380Y-105000000D02*
X131952380Y-105000000D01*
X132095238Y-104904761D01*
X132190476Y-104809523D01*
X132238095Y-104714285D01*
D11*
%TO.C,U1*%
X153800000Y-101800000D02*
X149200000Y-101800000D01*
X149200000Y-101800000D02*
X149200000Y-107200000D01*
X149200000Y-107200000D02*
X153800000Y-107200000D01*
X153800000Y-107200000D02*
X153800000Y-101800000D01*
%TO.C,D1*%
X134735000Y-103700000D02*
X134735000Y-106160000D01*
X133265000Y-106160000D02*
X133265000Y-103700000D01*
X134735000Y-106160000D02*
X133265000Y-106160000D01*
%TD*%
M02*
