0
SECTION
2
HEADER
9
$INSUNITS
70
4
9
$ACADVER
1
AC1014
9
$HANDSEED
5
FFFF
0
ENDSEC
0
SECTION
2
TABLES
0
TABLE
2
VPORT
5
8
100
AcDbSymbolTable
0
ENDTAB
0
TABLE
2
LTYPE
5
5
100
AcDbSymbolTable
0
LTYPE
5
14
100
AcDbSymbolTableRecord
100
AcDbLinetypeTableRecord
2
BYBLOCK
70
0
0
LTYPE
5
15
100
AcDbSymbolTableRecord
100
AcDbLinetypeTableRecord
2
BYLAYER
70
0
0
ENDTAB
0
TABLE
2
LAYER
5
2
100
AcDbSymbolTable
70
2
0
LAYER
5
50
100
AcDbSymbolTableRecord
100
AcDbLayerTableRecord
2
0
70
0
6
CONTINUOUS
0
ENDTAB
0
TABLE
2
STYLE
5
3
100
AcDbSymbolTable
70
1
0
STYLE
5
11
100
AcDbSymbolTableRecord
100
AcDbTextStyleTableRecord
2
STANDARD
70
0
0
ENDTAB
0
TABLE
2
VIEW
5
6
100
AcDbSymbolTable
70
0
0
ENDTAB
0
TABLE
2
UCS
5
7
100
AcDbSymbolTable
70
0
0
ENDTAB
0
TABLE
2
APPID
5
9
100
AcDbSymbolTable
70
2
0
APPID
5
12
100
AcDbSymbolTableRecord
100
AcDbRegAppTableRecord
2
ACAD
70
0
0
ENDTAB
0
TABLE
2
DIMSTYLE
5
A
100
AcDbSymbolTable
70
1
0
ENDTAB
0
TABLE
2
BLOCK_RECORD
5
1
100
AcDbSymbolTable
70
1
0
BLOCK_RECORD
5
1F
100
AcDbSymbolTableRecord
100
AcDbBlockTableRecord
2
*MODEL_SPACE
0
BLOCK_RECORD
5
1B
100
AcDbSymbolTableRecord
100
AcDbBlockTableRecord
2
*PAPER_SPACE
0
ENDTAB
0
ENDSEC
0
SECTION
2
BLOCKS
0
BLOCK
5
20
100
AcDbEntity
100
AcDbBlockBegin
2
*MODEL_SPACE
0
ENDBLK
5
21
100
AcDbEntity
100
AcDbBlockEnd
0
BLOCK
5
1C
100
AcDbEntity
100
AcDbBlockBegin
2
*PAPER_SPACE
0
ENDBLK
5
1D
100
AcDbEntity
100
AcDbBlockEnd
0
ENDSEC
0
SECTION
2
ENTITIES
0
LWPOLYLINE
5
100
100
AcDbEntity
8
0
100
AcDbPolyline
90
42
70
1
43
0.0
10
4.4368451865958711
20
21.356066017178538
42
0.19705940441481629
10
4.0858224075478375
20
21.499999999999989
10
-3.5527136788005009e-14
20
21.499999999999989
10
-3.5527136788005009e-14
20
-1.3322676295501878e-14
10
35.399999999999956
20
-1.1102230246251565e-14
10
41.399999999999963
20
-6.0000000000000124
10
59.399999999999963
20
-6.0000000000000124
10
65.399999999999949
20
-1.1102230246251565e-14
10
100.79999999999997
20
-8.8817841970012523e-15
10
100.79999999999995
20
21.499999999999989
10
96.714177592449616
20
21.499999999999986
42
0.1970594044142531
10
96.363154813402346
20
21.356066017179273
42
-0.99289303804966644
10
95.65606601717748
20
22.063154813407621
42
0.19705940441556791
10
95.799999999999955
20
22.414177592456667
10
95.799999999999955
20
25.499999999999993
10
63.299999999999947
20
25.499999999999964
42
-0.41421356237309503
10
61.79999999999994
20
26.999999999999964
10
61.79999999999994
20
29.999999999999968
42
-0.41421356237309503
10
63.299999999999947
20
31.499999999999968
10
95.799999999999926
20
31.499999999999972
10
95.799999999999955
20
34.58582240754653
42
0.19705940441574918
10
95.656066017177167
20
34.936845186595896
42
-0.99289303805280404
10
96.363154813403668
20
35.643933982822624
42
0.19705940441568359
10
96.714177592452899
20
35.499999999999986
10
100.79999999999993
20
35.5
10
100.79999999999997
20
61.999999999999993
42
0.41421356237309331
10
97.799999999999955
20
64.999999999999986
10
2.9999999999999538
20
64.999999999999986
42
0.41421356237309492
10
-4.2743586448068527e-14
20
61.999999999999993
10
-3.5527136788005016e-14
20
35.499999999999993
10
4.0858224075468819
20
35.499999999999986
42
0.19705940441523934
10
4.4368451865954945
20
35.643933982822013
42
-0.99289303805096862
10
5.1439339828220279
20
34.936845186595363
42
0.19705940441527692
10
4.9999999999999556
20
34.585822407546701
10
4.9999999999999556
20
31.499999999999972
10
37.499999999999936
20
31.499999999999972
42
-0.41421356237309503
10
38.999999999999936
20
29.999999999999972
10
38.999999999999943
20
26.999999999999975
42
-0.41421356237309503
10
37.499999999999943
20
25.499999999999975
10
4.9999999999999423
20
25.499999999999993
10
4.9999999999999556
20
22.414177592454219
42
0.19705940441520944
10
5.143933982821931
20
22.063154813405642
42
-0.99289303805004503
0
CIRCLE
5
101
100
AcDbEntity
8
0
100
AcDbCircle
10
41.399999999999935
20
-1.0000000000000231
30
0
40
1.6000000000000003
210
0
220
-0
230
1
0
CIRCLE
5
102
100
AcDbEntity
8
0
100
AcDbCircle
10
59.399999999999871
20
-0.99999999999969669
30
0
40
1.6000000000000003
210
0
220
-0
230
1
0
LWPOLYLINE
5
103
100
AcDbEntity
8
0
100
AcDbPolyline
90
4
70
1
43
0.0
10
47.399999999999935
20
0.9999999999844511
10
53.399999999999935
20
0.99999999998444056
42
-0.99999999999999989
10
53.399999999999935
20
-2.9999999999844773
10
47.399999999999935
20
-2.9999999999844795
42
-0.99999999999999989
0
CIRCLE
5
104
100
AcDbEntity
8
0
100
AcDbCircle
10
89.799999999999613
20
3.0000000000009219
30
0
40
1.6000000000000003
210
0
220
-0
230
1
0
CIRCLE
5
105
100
AcDbEntity
8
0
100
AcDbCircle
10
2.9999999999999676
20
2.9999999999999916
30
0
40
1.6000000000000003
210
0
220
-0
230
1
0
CIRCLE
5
106
100
AcDbEntity
8
0
100
AcDbCircle
10
10.999999999999968
20
2.9999999999999916
30
0
40
1.6000000000000003
210
0
220
-0
230
1
0
CIRCLE
5
107
100
AcDbEntity
8
0
100
AcDbCircle
10
97.799999999999599
20
3.0000000000010756
30
0
40
1.6000000000000003
210
0
220
-0
230
1
0
CIRCLE
5
108
100
AcDbEntity
8
0
100
AcDbCircle
10
98.299999999997709
20
41.000000000001442
30
0
40
1.6000000000000003
210
0
220
-0
230
1
0
CIRCLE
5
109
100
AcDbEntity
8
0
100
AcDbCircle
10
2.4999999999999645
20
15.999999999999975
30
0
40
1.6000000000000003
210
0
220
-0
230
1
0
CIRCLE
5
110
100
AcDbEntity
8
0
100
AcDbCircle
10
2.4999999999996865
20
40.999999999999339
30
0
40
1.6000000000000003
210
0
220
-0
230
1
0
CIRCLE
5
111
100
AcDbEntity
8
0
100
AcDbCircle
10
98.299999999998775
20
16.000000000002078
30
0
40
1.6000000000000003
210
0
220
-0
230
1
0
CIRCLE
5
112
100
AcDbEntity
8
0
100
AcDbCircle
10
2.4999999999999098
20
47.499999999999872
30
8.3266726846886741e-16
40
1.2645
210
0
220
-0
230
1
0
CIRCLE
5
113
100
AcDbEntity
8
0
100
AcDbCircle
10
2.4999999999999134
20
9.4999999999998721
30
8.3266726846886741e-16
40
1.2645
210
0
220
-0
230
1
0
LWPOLYLINE
5
114
100
AcDbEntity
8
0
100
AcDbPolyline
90
4
70
1
43
0.0
10
4.999999999999913
20
5.999999999999873
10
4.999999999999913
20
50.999999999999872
10
-8.659739592076221e-14
20
50.999999999999872
10
-8.659739592076221e-14
20
5.9999999999998721
0
CIRCLE
5
115
100
AcDbEntity
8
0
100
AcDbCircle
10
98.299999999999443
20
47.500000000001819
30
8.3266726846886741e-16
40
1.2645
210
0
220
0
230
1
0
CIRCLE
5
116
100
AcDbEntity
8
0
100
AcDbCircle
10
98.299999999999443
20
9.500000000001819
30
8.3266726846886741e-16
40
1.2645
210
0
220
0
230
1
0
LWPOLYLINE
5
117
100
AcDbEntity
8
0
100
AcDbPolyline
90
4
70
1
43
0.0
10
95.799999999999443
20
51.000000000001826
10
95.799999999999443
20
6.0000000000018172
10
100.79999999999944
20
6.0000000000018217
10
100.79999999999944
20
51.000000000001826
0
ENDSEC
0
SECTION
2
OBJECTS
0
DICTIONARY
5
C
100
AcDbDictionary
3
ACAD_GROUP
350
D
3
ACAD_MLINESTYLE
350
17
0
DICTIONARY
5
D
100
AcDbDictionary
0
DICTIONARY
5
1A
330
C
100
AcDbDictionary
0
DICTIONARY
5
17
100
AcDbDictionary
0
ENDSEC
0
EOF
