%TF.GenerationSoftware,KiCad,Pcbnew,(6.0.4)*%
%TF.CreationDate,2022-08-24T21:10:21+09:00*%
%TF.ProjectId,robotrace_v1_main,726f626f-7472-4616-9365-5f76315f6d61,rev?*%
%TF.SameCoordinates,Original*%
%TF.FileFunction,Paste,Top*%
%TF.FilePolarity,Positive*%
%FSLAX46Y46*%
G04 Gerber Fmt 4.6, Leading zero omitted, Abs format (unit mm)*
G04 Created by KiCad (PCBNEW (6.0.4)) date 2022-08-24 21:10:21*
%MOMM*%
%LPD*%
G01*
G04 APERTURE LIST*
G04 Aperture macros list*
%AMRoundRect*
0 Rectangle with rounded corners*
0 $1 Rounding radius*
0 $2 $3 $4 $5 $6 $7 $8 $9 X,Y pos of 4 corners*
0 Add a 4 corners polygon primitive as box body*
4,1,4,$2,$3,$4,$5,$6,$7,$8,$9,$2,$3,0*
0 Add four circle primitives for the rounded corners*
1,1,$1+$1,$2,$3*
1,1,$1+$1,$4,$5*
1,1,$1+$1,$6,$7*
1,1,$1+$1,$8,$9*
0 Add four rect primitives between the rounded corners*
20,1,$1+$1,$2,$3,$4,$5,0*
20,1,$1+$1,$4,$5,$6,$7,0*
20,1,$1+$1,$6,$7,$8,$9,0*
20,1,$1+$1,$8,$9,$2,$3,0*%
G04 Aperture macros list end*
%ADD10RoundRect,0.200000X0.275000X-0.200000X0.275000X0.200000X-0.275000X0.200000X-0.275000X-0.200000X0*%
%ADD11R,0.700000X1.200000*%
%ADD12R,1.000000X0.800000*%
%ADD13R,1.000000X1.200000*%
%ADD14R,1.000000X2.800000*%
%ADD15R,1.300000X1.900000*%
%ADD16RoundRect,0.250000X-0.412500X-1.100000X0.412500X-1.100000X0.412500X1.100000X-0.412500X1.100000X0*%
%ADD17RoundRect,0.200000X-0.275000X0.200000X-0.275000X-0.200000X0.275000X-0.200000X0.275000X0.200000X0*%
%ADD18R,1.500000X1.200000*%
%ADD19RoundRect,0.155000X-0.155000X0.212500X-0.155000X-0.212500X0.155000X-0.212500X0.155000X0.212500X0*%
%ADD20RoundRect,0.155000X-0.212500X-0.155000X0.212500X-0.155000X0.212500X0.155000X-0.212500X0.155000X0*%
%ADD21RoundRect,0.200000X0.200000X0.275000X-0.200000X0.275000X-0.200000X-0.275000X0.200000X-0.275000X0*%
%ADD22RoundRect,0.250000X1.100000X-0.412500X1.100000X0.412500X-1.100000X0.412500X-1.100000X-0.412500X0*%
%ADD23RoundRect,0.250000X-0.337500X-0.475000X0.337500X-0.475000X0.337500X0.475000X-0.337500X0.475000X0*%
%ADD24RoundRect,0.155000X0.155000X-0.212500X0.155000X0.212500X-0.155000X0.212500X-0.155000X-0.212500X0*%
%ADD25R,1.050000X0.880000*%
%ADD26R,0.450000X1.050000*%
%ADD27R,0.300000X1.000000*%
%ADD28R,1.600000X1.600000*%
%ADD29RoundRect,0.237500X-0.287500X-0.237500X0.287500X-0.237500X0.287500X0.237500X-0.287500X0.237500X0*%
%ADD30RoundRect,0.150000X-0.625000X0.150000X-0.625000X-0.150000X0.625000X-0.150000X0.625000X0.150000X0*%
%ADD31RoundRect,0.250000X-0.650000X0.350000X-0.650000X-0.350000X0.650000X-0.350000X0.650000X0.350000X0*%
%ADD32RoundRect,0.200000X-0.200000X-0.275000X0.200000X-0.275000X0.200000X0.275000X-0.200000X0.275000X0*%
%ADD33RoundRect,0.250000X-0.415000X-0.710000X0.415000X-0.710000X0.415000X0.710000X-0.415000X0.710000X0*%
%ADD34RoundRect,0.062500X-0.362500X-0.062500X0.362500X-0.062500X0.362500X0.062500X-0.362500X0.062500X0*%
%ADD35R,1.800000X2.500000*%
%ADD36RoundRect,0.250000X0.550000X-1.500000X0.550000X1.500000X-0.550000X1.500000X-0.550000X-1.500000X0*%
%ADD37RoundRect,0.075000X0.441942X0.548008X-0.548008X-0.441942X-0.441942X-0.548008X0.548008X0.441942X0*%
%ADD38RoundRect,0.075000X-0.441942X0.548008X-0.548008X0.441942X0.441942X-0.548008X0.548008X-0.441942X0*%
%ADD39RoundRect,0.160000X-0.160000X-0.345000X0.160000X-0.345000X0.160000X0.345000X-0.160000X0.345000X0*%
%ADD40RoundRect,0.250000X-1.100000X0.412500X-1.100000X-0.412500X1.100000X-0.412500X1.100000X0.412500X0*%
%ADD41RoundRect,0.250000X-0.477297X0.123744X0.123744X-0.477297X0.477297X-0.123744X-0.123744X0.477297X0*%
%ADD42RoundRect,0.450000X-0.707107X0.070711X0.070711X-0.707107X0.707107X-0.070711X-0.070711X0.707107X0*%
%ADD43R,1.000000X1.300000*%
%ADD44RoundRect,0.200000X0.200000X0.800000X-0.200000X0.800000X-0.200000X-0.800000X0.200000X-0.800000X0*%
%ADD45RoundRect,0.218750X-0.218750X-0.256250X0.218750X-0.256250X0.218750X0.256250X-0.218750X0.256250X0*%
%ADD46RoundRect,0.100000X-0.637500X-0.100000X0.637500X-0.100000X0.637500X0.100000X-0.637500X0.100000X0*%
%ADD47R,2.500000X1.800000*%
%ADD48RoundRect,0.155000X0.212500X0.155000X-0.212500X0.155000X-0.212500X-0.155000X0.212500X-0.155000X0*%
%ADD49RoundRect,0.087500X-0.187500X-0.087500X0.187500X-0.087500X0.187500X0.087500X-0.187500X0.087500X0*%
%ADD50RoundRect,0.087500X-0.087500X-0.187500X0.087500X-0.187500X0.087500X0.187500X-0.087500X0.187500X0*%
%ADD51R,0.300000X1.300000*%
%ADD52RoundRect,0.150000X-0.150000X0.587500X-0.150000X-0.587500X0.150000X-0.587500X0.150000X0.587500X0*%
%ADD53R,0.400000X0.500000*%
%ADD54R,0.300000X0.500000*%
G04 APERTURE END LIST*
D10*
%TO.C,R30*%
X149500000Y-97825000D03*
X149500000Y-96175000D03*
%TD*%
D11*
%TO.C,J8*%
X150025000Y-127810000D03*
X148925000Y-127810000D03*
X147825000Y-127810000D03*
X146725000Y-127810000D03*
X145625000Y-127810000D03*
X144525000Y-127810000D03*
X143425000Y-127810000D03*
X142325000Y-127810000D03*
X141375000Y-127810000D03*
D12*
X140425000Y-138310000D03*
D13*
X151575000Y-127810000D03*
X140425000Y-132110000D03*
D14*
X140425000Y-142460000D03*
D15*
X153925000Y-142910000D03*
%TD*%
D16*
%TO.C,C26*%
X123687500Y-117687500D03*
X126812500Y-117687500D03*
%TD*%
D10*
%TO.C,R18*%
X139000000Y-97825000D03*
X139000000Y-96175000D03*
%TD*%
D17*
%TO.C,R39*%
X161250000Y-117425000D03*
X161250000Y-119075000D03*
%TD*%
D18*
%TO.C,L1*%
X118150000Y-116250000D03*
X120850000Y-116250000D03*
%TD*%
D10*
%TO.C,R29*%
X148000000Y-97825000D03*
X148000000Y-96175000D03*
%TD*%
D19*
%TO.C,C35*%
X174000000Y-134932500D03*
X174000000Y-136067500D03*
%TD*%
D17*
%TO.C,R4*%
X112500000Y-92425000D03*
X112500000Y-94075000D03*
%TD*%
D20*
%TO.C,C42*%
X135182500Y-129000000D03*
X136317500Y-129000000D03*
%TD*%
%TO.C,C24*%
X147682500Y-106750000D03*
X148817500Y-106750000D03*
%TD*%
D17*
%TO.C,R46*%
X133250000Y-96925000D03*
X133250000Y-98575000D03*
%TD*%
D21*
%TO.C,R9*%
X174325000Y-138000000D03*
X172675000Y-138000000D03*
%TD*%
D22*
%TO.C,C38*%
X132250000Y-130312500D03*
X132250000Y-127187500D03*
%TD*%
D23*
%TO.C,C29*%
X125462500Y-123937500D03*
X127537500Y-123937500D03*
%TD*%
D24*
%TO.C,C1*%
X122500000Y-86317500D03*
X122500000Y-85182500D03*
%TD*%
D25*
%TO.C,U6*%
X128375000Y-128366600D03*
X127125000Y-128366600D03*
X124625000Y-128366600D03*
X125875000Y-129500000D03*
X127125000Y-129500000D03*
X128375000Y-130633400D03*
X124625000Y-130633400D03*
X125875000Y-128366600D03*
X125875000Y-130633400D03*
X128375000Y-129500000D03*
X127125000Y-130633400D03*
X124625000Y-129500000D03*
D26*
X124225000Y-132275000D03*
X124875000Y-132275000D03*
X125525000Y-132275000D03*
X126175000Y-132275000D03*
X126825000Y-132275000D03*
X127475000Y-132275000D03*
X128125000Y-132275000D03*
X128775000Y-132275000D03*
X128775000Y-126725000D03*
X128125000Y-126725000D03*
X127475000Y-126725000D03*
X126825000Y-126725000D03*
X126175000Y-126725000D03*
X125525000Y-126725000D03*
X124875000Y-126725000D03*
X124225000Y-126725000D03*
%TD*%
D27*
%TO.C,J1*%
X187225000Y-97400000D03*
X186725000Y-97400000D03*
X186250000Y-97400000D03*
X185750000Y-97400000D03*
D28*
X183137500Y-94525000D03*
X189837500Y-94525000D03*
%TD*%
D29*
%TO.C,D2*%
X107625000Y-138500000D03*
X109375000Y-138500000D03*
%TD*%
D21*
%TO.C,R12*%
X174325000Y-139750000D03*
X172675000Y-139750000D03*
%TD*%
D30*
%TO.C,J4*%
X158425000Y-136000000D03*
X158425000Y-137000000D03*
X158425000Y-138000000D03*
X158425000Y-139000000D03*
D31*
X160950000Y-140300000D03*
X160950000Y-134700000D03*
%TD*%
D20*
%TO.C,C13*%
X130432500Y-97250000D03*
X131567500Y-97250000D03*
%TD*%
D10*
%TO.C,R27*%
X145000000Y-97825000D03*
X145000000Y-96175000D03*
%TD*%
D32*
%TO.C,R47*%
X134925000Y-130500000D03*
X136575000Y-130500000D03*
%TD*%
D10*
%TO.C,R45*%
X131250000Y-122575000D03*
X131250000Y-120925000D03*
%TD*%
D17*
%TO.C,R17*%
X147750000Y-122925000D03*
X147750000Y-124575000D03*
%TD*%
D24*
%TO.C,C37*%
X130000000Y-129317500D03*
X130000000Y-128182500D03*
%TD*%
D32*
%TO.C,R10*%
X175675000Y-138000000D03*
X177325000Y-138000000D03*
%TD*%
D10*
%TO.C,R28*%
X146500000Y-97825000D03*
X146500000Y-96175000D03*
%TD*%
D33*
%TO.C,U3*%
X119500000Y-120500000D03*
D34*
X118025000Y-119750000D03*
X118025000Y-120250000D03*
X118025000Y-120750000D03*
X118025000Y-121250000D03*
X120975000Y-121250000D03*
X120975000Y-120750000D03*
X120975000Y-120250000D03*
X120975000Y-119750000D03*
%TD*%
D16*
%TO.C,C33*%
X166437500Y-135500000D03*
X169562500Y-135500000D03*
%TD*%
D29*
%TO.C,D5*%
X107625000Y-140500000D03*
X109375000Y-140500000D03*
%TD*%
D19*
%TO.C,C25*%
X122250000Y-119432500D03*
X122250000Y-120567500D03*
%TD*%
D32*
%TO.C,R38*%
X111175000Y-140500000D03*
X112825000Y-140500000D03*
%TD*%
D10*
%TO.C,R26*%
X143500000Y-97825000D03*
X143500000Y-96175000D03*
%TD*%
D35*
%TO.C,D3*%
X111500000Y-119062500D03*
X111500000Y-123062500D03*
%TD*%
D36*
%TO.C,C15*%
X107500000Y-132262500D03*
X107500000Y-126862500D03*
%TD*%
D37*
%TO.C,U1*%
X128164481Y-93638819D03*
X127810928Y-93285266D03*
X127457375Y-92931713D03*
X127103821Y-92578159D03*
X126750268Y-92224606D03*
X126396714Y-91871052D03*
X126043161Y-91517499D03*
X125689608Y-91163946D03*
X125336054Y-90810392D03*
X124982501Y-90456839D03*
X124628948Y-90103286D03*
X124275394Y-89749732D03*
X123921841Y-89396179D03*
X123568287Y-89042625D03*
X123214734Y-88689072D03*
X122861181Y-88335519D03*
D38*
X120138819Y-88335519D03*
X119785266Y-88689072D03*
X119431713Y-89042625D03*
X119078159Y-89396179D03*
X118724606Y-89749732D03*
X118371052Y-90103286D03*
X118017499Y-90456839D03*
X117663946Y-90810392D03*
X117310392Y-91163946D03*
X116956839Y-91517499D03*
X116603286Y-91871052D03*
X116249732Y-92224606D03*
X115896179Y-92578159D03*
X115542625Y-92931713D03*
X115189072Y-93285266D03*
X114835519Y-93638819D03*
D37*
X114835519Y-96361181D03*
X115189072Y-96714734D03*
X115542625Y-97068287D03*
X115896179Y-97421841D03*
X116249732Y-97775394D03*
X116603286Y-98128948D03*
X116956839Y-98482501D03*
X117310392Y-98836054D03*
X117663946Y-99189608D03*
X118017499Y-99543161D03*
X118371052Y-99896714D03*
X118724606Y-100250268D03*
X119078159Y-100603821D03*
X119431713Y-100957375D03*
X119785266Y-101310928D03*
X120138819Y-101664481D03*
D38*
X122861181Y-101664481D03*
X123214734Y-101310928D03*
X123568287Y-100957375D03*
X123921841Y-100603821D03*
X124275394Y-100250268D03*
X124628948Y-99896714D03*
X124982501Y-99543161D03*
X125336054Y-99189608D03*
X125689608Y-98836054D03*
X126043161Y-98482501D03*
X126396714Y-98128948D03*
X126750268Y-97775394D03*
X127103821Y-97421841D03*
X127457375Y-97068287D03*
X127810928Y-96714734D03*
X128164481Y-96361181D03*
%TD*%
D39*
%TO.C,U5*%
X168150000Y-130625000D03*
X167350000Y-129375000D03*
X168150000Y-129375000D03*
X167350000Y-130625000D03*
D34*
X166325000Y-128750000D03*
X166325000Y-129250000D03*
X166325000Y-129750000D03*
X166325000Y-130250000D03*
X166325000Y-130750000D03*
X166325000Y-131250000D03*
X169175000Y-131250000D03*
X169175000Y-130750000D03*
X169175000Y-130250000D03*
X169175000Y-129750000D03*
X169175000Y-129250000D03*
X169175000Y-128750000D03*
%TD*%
D40*
%TO.C,C18*%
X107750000Y-119937500D03*
X107750000Y-123062500D03*
%TD*%
D20*
%TO.C,C39*%
X179932500Y-123250000D03*
X181067500Y-123250000D03*
%TD*%
D21*
%TO.C,R40*%
X168825000Y-115750000D03*
X167175000Y-115750000D03*
%TD*%
D17*
%TO.C,R15*%
X142250000Y-122925000D03*
X142250000Y-124575000D03*
%TD*%
%TO.C,R1*%
X173500000Y-88425000D03*
X173500000Y-90075000D03*
%TD*%
%TO.C,R48*%
X135000000Y-96925000D03*
X135000000Y-98575000D03*
%TD*%
D32*
%TO.C,R8*%
X127175000Y-138250000D03*
X128825000Y-138250000D03*
%TD*%
D20*
%TO.C,C6*%
X176182500Y-141500000D03*
X177317500Y-141500000D03*
%TD*%
D41*
%TO.C,SW2*%
X184387658Y-135322779D03*
X183380030Y-136330406D03*
X182372403Y-137338033D03*
X189443471Y-140378592D03*
X188435844Y-141386220D03*
X187428217Y-142393847D03*
D42*
X188630298Y-135853109D03*
X183044155Y-141722095D03*
%TD*%
D43*
%TO.C,Y1*%
X135650000Y-93850000D03*
X135650000Y-91650000D03*
X133850000Y-91650000D03*
X133850000Y-93850000D03*
%TD*%
D10*
%TO.C,R33*%
X154000000Y-97825000D03*
X154000000Y-96175000D03*
%TD*%
D44*
%TO.C,SW1*%
X121100000Y-85250000D03*
X116900000Y-85250000D03*
%TD*%
D39*
%TO.C,U4*%
X168150000Y-118875000D03*
X167350000Y-118875000D03*
X168150000Y-117625000D03*
X167350000Y-117625000D03*
D34*
X166325000Y-117000000D03*
X166325000Y-117500000D03*
X166325000Y-118000000D03*
X166325000Y-118500000D03*
X166325000Y-119000000D03*
X166325000Y-119500000D03*
X169175000Y-119500000D03*
X169175000Y-119000000D03*
X169175000Y-118500000D03*
X169175000Y-118000000D03*
X169175000Y-117500000D03*
X169175000Y-117000000D03*
%TD*%
D17*
%TO.C,R42*%
X162750000Y-117425000D03*
X162750000Y-119075000D03*
%TD*%
D20*
%TO.C,C28*%
X167182500Y-132500000D03*
X168317500Y-132500000D03*
%TD*%
D30*
%TO.C,J6*%
X165675000Y-95750000D03*
X165675000Y-96750000D03*
X165675000Y-97750000D03*
X165675000Y-98750000D03*
X165675000Y-99750000D03*
X165675000Y-100750000D03*
D31*
X168200000Y-102050000D03*
X168200000Y-94450000D03*
%TD*%
D21*
%TO.C,R24*%
X157575000Y-89750000D03*
X155925000Y-89750000D03*
%TD*%
D29*
%TO.C,D6*%
X107625000Y-142500000D03*
X109375000Y-142500000D03*
%TD*%
D16*
%TO.C,C31*%
X166437500Y-123250000D03*
X169562500Y-123250000D03*
%TD*%
D17*
%TO.C,R2*%
X175000000Y-88425000D03*
X175000000Y-90075000D03*
%TD*%
D20*
%TO.C,C22*%
X150182500Y-111500000D03*
X151317500Y-111500000D03*
%TD*%
D17*
%TO.C,R20*%
X149500000Y-122925000D03*
X149500000Y-124575000D03*
%TD*%
D32*
%TO.C,R35*%
X119175000Y-123750000D03*
X120825000Y-123750000D03*
%TD*%
D45*
%TO.C,FB1*%
X135012500Y-127500000D03*
X136587500Y-127500000D03*
%TD*%
D46*
%TO.C,U7*%
X175137500Y-116725000D03*
X175137500Y-117375000D03*
X175137500Y-118025000D03*
X175137500Y-118675000D03*
X175137500Y-119325000D03*
X175137500Y-119975000D03*
X175137500Y-120625000D03*
X175137500Y-121275000D03*
X180862500Y-121275000D03*
X180862500Y-120625000D03*
X180862500Y-119975000D03*
X180862500Y-119325000D03*
X180862500Y-118675000D03*
X180862500Y-118025000D03*
X180862500Y-117375000D03*
X180862500Y-116725000D03*
%TD*%
D17*
%TO.C,R16*%
X143750000Y-122925000D03*
X143750000Y-124575000D03*
%TD*%
D32*
%TO.C,R22*%
X111125000Y-138500000D03*
X112775000Y-138500000D03*
%TD*%
D19*
%TO.C,C23*%
X114250000Y-120432500D03*
X114250000Y-121567500D03*
%TD*%
D32*
%TO.C,R6*%
X127175000Y-141750000D03*
X128825000Y-141750000D03*
%TD*%
D20*
%TO.C,C41*%
X134932500Y-125800000D03*
X136067500Y-125800000D03*
%TD*%
D19*
%TO.C,C34*%
X173750000Y-122682500D03*
X173750000Y-123817500D03*
%TD*%
D10*
%TO.C,R21*%
X140500000Y-97825000D03*
X140500000Y-96175000D03*
%TD*%
D20*
%TO.C,C21*%
X150182500Y-110500000D03*
X151317500Y-110500000D03*
%TD*%
D21*
%TO.C,R41*%
X168825000Y-127500000D03*
X167175000Y-127500000D03*
%TD*%
D47*
%TO.C,D4*%
X124500000Y-121187500D03*
X128500000Y-121187500D03*
%TD*%
D32*
%TO.C,R5*%
X127175000Y-143500000D03*
X128825000Y-143500000D03*
%TD*%
D46*
%TO.C,U8*%
X175137500Y-126225000D03*
X175137500Y-126875000D03*
X175137500Y-127525000D03*
X175137500Y-128175000D03*
X175137500Y-128825000D03*
X175137500Y-129475000D03*
X175137500Y-130125000D03*
X175137500Y-130775000D03*
X180862500Y-130775000D03*
X180862500Y-130125000D03*
X180862500Y-129475000D03*
X180862500Y-128825000D03*
X180862500Y-128175000D03*
X180862500Y-127525000D03*
X180862500Y-126875000D03*
X180862500Y-126225000D03*
%TD*%
D32*
%TO.C,R7*%
X127175000Y-140000000D03*
X128825000Y-140000000D03*
%TD*%
D48*
%TO.C,C36*%
X159267500Y-116000000D03*
X158132500Y-116000000D03*
%TD*%
D10*
%TO.C,R31*%
X151000000Y-97825000D03*
X151000000Y-96175000D03*
%TD*%
D24*
%TO.C,C5*%
X178750000Y-139567500D03*
X178750000Y-138432500D03*
%TD*%
D19*
%TO.C,C12*%
X112500000Y-98432500D03*
X112500000Y-99567500D03*
%TD*%
D12*
%TO.C,D1*%
X174250000Y-85450000D03*
X175750000Y-85450000D03*
X175750000Y-86550000D03*
X174250000Y-86550000D03*
%TD*%
D32*
%TO.C,R19*%
X155925000Y-88250000D03*
X157575000Y-88250000D03*
%TD*%
D21*
%TO.C,R11*%
X177325000Y-139750000D03*
X175675000Y-139750000D03*
%TD*%
D19*
%TO.C,C14*%
X135500000Y-86865000D03*
X135500000Y-88000000D03*
%TD*%
D49*
%TO.C,U2*%
X146025000Y-109500000D03*
X146025000Y-110000000D03*
X146025000Y-110500000D03*
X146025000Y-111000000D03*
X146025000Y-111500000D03*
D50*
X146750000Y-111725000D03*
X147250000Y-111725000D03*
X147750000Y-111725000D03*
D49*
X148475000Y-111500000D03*
X148475000Y-111000000D03*
X148475000Y-110500000D03*
X148475000Y-110000000D03*
X148475000Y-109500000D03*
D50*
X147750000Y-109275000D03*
X147250000Y-109275000D03*
X146750000Y-109275000D03*
%TD*%
D20*
%TO.C,C27*%
X167182500Y-120750000D03*
X168317500Y-120750000D03*
%TD*%
D32*
%TO.C,R37*%
X163675000Y-127500000D03*
X165325000Y-127500000D03*
%TD*%
D20*
%TO.C,C9*%
X130432500Y-96000000D03*
X131567500Y-96000000D03*
%TD*%
D21*
%TO.C,R14*%
X128825000Y-136500000D03*
X127175000Y-136500000D03*
%TD*%
D20*
%TO.C,C3*%
X111682500Y-90750000D03*
X112817500Y-90750000D03*
%TD*%
D19*
%TO.C,C32*%
X172250000Y-134932500D03*
X172250000Y-136067500D03*
%TD*%
D51*
%TO.C,J9*%
X151000000Y-92100000D03*
X150500000Y-92100000D03*
X150000000Y-92100000D03*
X149500000Y-92100000D03*
X149000000Y-92100000D03*
X148500000Y-92100000D03*
X148000000Y-92100000D03*
X147500000Y-92100000D03*
X147000000Y-92100000D03*
X146500000Y-92100000D03*
X146000000Y-92100000D03*
X145500000Y-92100000D03*
X145000000Y-92100000D03*
X144500000Y-92100000D03*
X144000000Y-92100000D03*
X143500000Y-92100000D03*
D28*
X153600000Y-88850000D03*
X140900000Y-88850000D03*
%TD*%
D30*
%TO.C,J3*%
X173675000Y-97250000D03*
X173675000Y-98250000D03*
X173675000Y-99250000D03*
D31*
X176200000Y-95950000D03*
X176200000Y-100550000D03*
%TD*%
D10*
%TO.C,R34*%
X155500000Y-97825000D03*
X155500000Y-96175000D03*
%TD*%
D20*
%TO.C,C4*%
X175932500Y-136500000D03*
X177067500Y-136500000D03*
%TD*%
D17*
%TO.C,R25*%
X151250000Y-122925000D03*
X151250000Y-124575000D03*
%TD*%
D32*
%TO.C,R44*%
X111175000Y-142500000D03*
X112825000Y-142500000D03*
%TD*%
D24*
%TO.C,C10*%
X112500000Y-87567500D03*
X112500000Y-86432500D03*
%TD*%
D48*
%TO.C,C8*%
X174067500Y-143000000D03*
X172932500Y-143000000D03*
%TD*%
D10*
%TO.C,R23*%
X142000000Y-97825000D03*
X142000000Y-96175000D03*
%TD*%
D32*
%TO.C,R36*%
X163675000Y-115750000D03*
X165325000Y-115750000D03*
%TD*%
D20*
%TO.C,C20*%
X150182500Y-109500000D03*
X151317500Y-109500000D03*
%TD*%
D52*
%TO.C,Q1*%
X157700000Y-91562500D03*
X155800000Y-91562500D03*
X156750000Y-93437500D03*
%TD*%
D32*
%TO.C,R13*%
X172675000Y-141500000D03*
X174325000Y-141500000D03*
%TD*%
D10*
%TO.C,R43*%
X133000000Y-122575000D03*
X133000000Y-120925000D03*
%TD*%
D17*
%TO.C,R3*%
X176500000Y-88425000D03*
X176500000Y-90075000D03*
%TD*%
D19*
%TO.C,C30*%
X172250000Y-122682500D03*
X172250000Y-123817500D03*
%TD*%
D10*
%TO.C,R32*%
X152500000Y-97825000D03*
X152500000Y-96175000D03*
%TD*%
D27*
%TO.C,J2*%
X107737500Y-97150000D03*
X107237500Y-97150000D03*
X106762500Y-97150000D03*
X106262500Y-97150000D03*
D28*
X110350000Y-94275000D03*
X103650000Y-94275000D03*
%TD*%
D24*
%TO.C,C11*%
X112500000Y-96817500D03*
X112500000Y-95682500D03*
%TD*%
D20*
%TO.C,C40*%
X180182500Y-132750000D03*
X181317500Y-132750000D03*
%TD*%
D36*
%TO.C,C16*%
X115500000Y-132262500D03*
X115500000Y-126862500D03*
%TD*%
D40*
%TO.C,C17*%
X104250000Y-119937500D03*
X104250000Y-123062500D03*
%TD*%
D48*
%TO.C,C19*%
X146317500Y-124500000D03*
X145182500Y-124500000D03*
%TD*%
D20*
%TO.C,C2*%
X130432500Y-94750000D03*
X131567500Y-94750000D03*
%TD*%
D19*
%TO.C,C7*%
X171250000Y-139932500D03*
X171250000Y-141067500D03*
%TD*%
D53*
%TO.C,RN1*%
X142000000Y-106250000D03*
D54*
X142500000Y-106250000D03*
X143000000Y-106250000D03*
D53*
X143500000Y-106250000D03*
X143500000Y-105250000D03*
D54*
X143000000Y-105250000D03*
X142500000Y-105250000D03*
D53*
X142000000Y-105250000D03*
%TD*%
M02*
