%TF.GenerationSoftware,KiCad,Pcbnew,(6.0.4)*%
%TF.CreationDate,2022-08-24T21:10:21+09:00*%
%TF.ProjectId,robotrace_v1_main,726f626f-7472-4616-9365-5f76315f6d61,rev?*%
%TF.SameCoordinates,Original*%
%TF.FileFunction,Legend,Bot*%
%TF.FilePolarity,Positive*%
%FSLAX46Y46*%
G04 Gerber Fmt 4.6, Leading zero omitted, Abs format (unit mm)*
G04 Created by KiCad (PCBNEW (6.0.4)) date 2022-08-24 21:10:21*
%MOMM*%
%LPD*%
G01*
G04 APERTURE LIST*
%ADD10C,0.150000*%
%ADD11C,0.120000*%
G04 APERTURE END LIST*
D10*
%TO.C,JP1*%
X178833333Y-114902380D02*
X178833333Y-115616666D01*
X178880952Y-115759523D01*
X178976190Y-115854761D01*
X179119047Y-115902380D01*
X179214285Y-115902380D01*
X178357142Y-115902380D02*
X178357142Y-114902380D01*
X177976190Y-114902380D01*
X177880952Y-114950000D01*
X177833333Y-114997619D01*
X177785714Y-115092857D01*
X177785714Y-115235714D01*
X177833333Y-115330952D01*
X177880952Y-115378571D01*
X177976190Y-115426190D01*
X178357142Y-115426190D01*
X176833333Y-115902380D02*
X177404761Y-115902380D01*
X177119047Y-115902380D02*
X177119047Y-114902380D01*
X177214285Y-115045238D01*
X177309523Y-115140476D01*
X177404761Y-115188095D01*
%TO.C,J10*%
X159444523Y-124627380D02*
X159444523Y-125341666D01*
X159492142Y-125484523D01*
X159587380Y-125579761D01*
X159730238Y-125627380D01*
X159825476Y-125627380D01*
X158444523Y-125627380D02*
X159015952Y-125627380D01*
X158730238Y-125627380D02*
X158730238Y-124627380D01*
X158825476Y-124770238D01*
X158920714Y-124865476D01*
X159015952Y-124913095D01*
X157825476Y-124627380D02*
X157730238Y-124627380D01*
X157635000Y-124675000D01*
X157587380Y-124722619D01*
X157539761Y-124817857D01*
X157492142Y-125008333D01*
X157492142Y-125246428D01*
X157539761Y-125436904D01*
X157587380Y-125532142D01*
X157635000Y-125579761D01*
X157730238Y-125627380D01*
X157825476Y-125627380D01*
X157920714Y-125579761D01*
X157968333Y-125532142D01*
X158015952Y-125436904D01*
X158063571Y-125246428D01*
X158063571Y-125008333D01*
X158015952Y-124817857D01*
X157968333Y-124722619D01*
X157920714Y-124675000D01*
X157825476Y-124627380D01*
%TO.C,J13*%
X136424523Y-116027380D02*
X136424523Y-116741666D01*
X136472142Y-116884523D01*
X136567380Y-116979761D01*
X136710238Y-117027380D01*
X136805476Y-117027380D01*
X135424523Y-117027380D02*
X135995952Y-117027380D01*
X135710238Y-117027380D02*
X135710238Y-116027380D01*
X135805476Y-116170238D01*
X135900714Y-116265476D01*
X135995952Y-116313095D01*
X135091190Y-116027380D02*
X134472142Y-116027380D01*
X134805476Y-116408333D01*
X134662619Y-116408333D01*
X134567380Y-116455952D01*
X134519761Y-116503571D01*
X134472142Y-116598809D01*
X134472142Y-116836904D01*
X134519761Y-116932142D01*
X134567380Y-116979761D01*
X134662619Y-117027380D01*
X134948333Y-117027380D01*
X135043571Y-116979761D01*
X135091190Y-116932142D01*
%TO.C,JP2*%
X178583333Y-123902380D02*
X178583333Y-124616666D01*
X178630952Y-124759523D01*
X178726190Y-124854761D01*
X178869047Y-124902380D01*
X178964285Y-124902380D01*
X178107142Y-124902380D02*
X178107142Y-123902380D01*
X177726190Y-123902380D01*
X177630952Y-123950000D01*
X177583333Y-123997619D01*
X177535714Y-124092857D01*
X177535714Y-124235714D01*
X177583333Y-124330952D01*
X177630952Y-124378571D01*
X177726190Y-124426190D01*
X178107142Y-124426190D01*
X177154761Y-123997619D02*
X177107142Y-123950000D01*
X177011904Y-123902380D01*
X176773809Y-123902380D01*
X176678571Y-123950000D01*
X176630952Y-123997619D01*
X176583333Y-124092857D01*
X176583333Y-124188095D01*
X176630952Y-124330952D01*
X177202380Y-124902380D01*
X176583333Y-124902380D01*
D11*
%TO.C,JP1*%
X176600000Y-118250000D02*
X179400000Y-118250000D01*
X176600000Y-116250000D02*
X176600000Y-118250000D01*
X179400000Y-118250000D02*
X179400000Y-116250000D01*
X179400000Y-116250000D02*
X176600000Y-116250000D01*
%TO.C,J10*%
X157240000Y-119035000D02*
X157050000Y-119035000D01*
X157050000Y-117640000D02*
X157050000Y-118400000D01*
X158000000Y-117640000D02*
X157050000Y-117640000D01*
X160220000Y-124175000D02*
X159577530Y-124175000D01*
X160220000Y-117705000D02*
X160220000Y-124175000D01*
X158962470Y-124175000D02*
X158307530Y-124175000D01*
X157050000Y-119035000D02*
X157050000Y-124175000D01*
X158962470Y-117705000D02*
X158760000Y-117705000D01*
X157692470Y-124175000D02*
X157050000Y-124175000D01*
X160220000Y-117705000D02*
X159577530Y-117705000D01*
%TO.C,J13*%
X135287530Y-124295000D02*
X135490000Y-124295000D01*
X137200000Y-122965000D02*
X137200000Y-117825000D01*
X137010000Y-122965000D02*
X137200000Y-122965000D01*
X134030000Y-124295000D02*
X134672470Y-124295000D01*
X134030000Y-124295000D02*
X134030000Y-117825000D01*
X134030000Y-117825000D02*
X134672470Y-117825000D01*
X136250000Y-124360000D02*
X137200000Y-124360000D01*
X137200000Y-124360000D02*
X137200000Y-123600000D01*
X136557530Y-117825000D02*
X137200000Y-117825000D01*
X135287530Y-117825000D02*
X135942470Y-117825000D01*
%TO.C,JP2*%
X179150000Y-125250000D02*
X176350000Y-125250000D01*
X179150000Y-127250000D02*
X179150000Y-125250000D01*
X176350000Y-125250000D02*
X176350000Y-127250000D01*
X176350000Y-127250000D02*
X179150000Y-127250000D01*
%TD*%
M02*
