%TF.GenerationSoftware,KiCad,Pcbnew,(6.0.4)*%
%TF.CreationDate,2022-08-24T21:10:21+09:00*%
%TF.ProjectId,robotrace_v1_main,726f626f-7472-4616-9365-5f76315f6d61,rev?*%
%TF.SameCoordinates,Original*%
%TF.FileFunction,Soldermask,Bot*%
%TF.FilePolarity,Negative*%
%FSLAX46Y46*%
G04 Gerber Fmt 4.6, Leading zero omitted, Abs format (unit mm)*
G04 Created by KiCad (PCBNEW (6.0.4)) date 2022-08-24 21:10:21*
%MOMM*%
%LPD*%
G01*
G04 APERTURE LIST*
G04 Aperture macros list*
%AMRoundRect*
0 Rectangle with rounded corners*
0 $1 Rounding radius*
0 $2 $3 $4 $5 $6 $7 $8 $9 X,Y pos of 4 corners*
0 Add a 4 corners polygon primitive as box body*
4,1,4,$2,$3,$4,$5,$6,$7,$8,$9,$2,$3,0*
0 Add four circle primitives for the rounded corners*
1,1,$1+$1,$2,$3*
1,1,$1+$1,$4,$5*
1,1,$1+$1,$6,$7*
1,1,$1+$1,$8,$9*
0 Add four rect primitives between the rounded corners*
20,1,$1+$1,$2,$3,$4,$5,0*
20,1,$1+$1,$4,$5,$6,$7,0*
20,1,$1+$1,$6,$7,$8,$9,0*
20,1,$1+$1,$8,$9,$2,$3,0*%
%AMFreePoly0*
4,1,6,1.000000,0.000000,0.500000,-0.750000,-0.500000,-0.750000,-0.500000,0.750000,0.500000,0.750000,1.000000,0.000000,1.000000,0.000000,$1*%
%AMFreePoly1*
4,1,6,0.500000,-0.750000,-0.650000,-0.750000,-0.150000,0.000000,-0.650000,0.750000,0.500000,0.750000,0.500000,-0.750000,0.500000,-0.750000,$1*%
G04 Aperture macros list end*
%ADD10R,1.000000X1.000000*%
%ADD11O,1.000000X1.000000*%
%ADD12C,1.524000*%
%ADD13RoundRect,0.250000X-0.620000X-0.845000X0.620000X-0.845000X0.620000X0.845000X-0.620000X0.845000X0*%
%ADD14O,1.740000X2.190000*%
%ADD15RoundRect,0.250000X0.620000X0.845000X-0.620000X0.845000X-0.620000X-0.845000X0.620000X-0.845000X0*%
%ADD16RoundRect,0.250000X0.845000X-0.620000X0.845000X0.620000X-0.845000X0.620000X-0.845000X-0.620000X0*%
%ADD17O,2.190000X1.740000*%
%ADD18FreePoly0,180.000000*%
%ADD19FreePoly1,180.000000*%
G04 APERTURE END LIST*
D10*
%TO.C,J5*%
X167895000Y-85225000D03*
D11*
X166625000Y-85225000D03*
X167895000Y-86495000D03*
X166625000Y-86495000D03*
X167895000Y-87765000D03*
X166625000Y-87765000D03*
X167895000Y-89035000D03*
X166625000Y-89035000D03*
X167895000Y-90305000D03*
X166625000Y-90305000D03*
%TD*%
D12*
%TO.C,SW3*%
X116410000Y-137200000D03*
X118950000Y-137200000D03*
X121490000Y-137200000D03*
X124030000Y-137200000D03*
X118950000Y-144820000D03*
%TD*%
D13*
%TO.C,J12*%
X185230000Y-119520000D03*
D14*
X187770000Y-119520000D03*
%TD*%
D15*
%TO.C,J11*%
X187770000Y-128730000D03*
D14*
X185230000Y-128730000D03*
%TD*%
D16*
%TO.C,J7*%
X102000000Y-142540000D03*
D17*
X102000000Y-140000000D03*
X102000000Y-137460000D03*
%TD*%
D18*
%TO.C,JP1*%
X178725000Y-117250000D03*
D19*
X177275000Y-117250000D03*
%TD*%
D10*
%TO.C,J10*%
X158000000Y-118400000D03*
D11*
X159270000Y-118400000D03*
X158000000Y-119670000D03*
X159270000Y-119670000D03*
X158000000Y-120940000D03*
X159270000Y-120940000D03*
X158000000Y-122210000D03*
X159270000Y-122210000D03*
X158000000Y-123480000D03*
X159270000Y-123480000D03*
%TD*%
D10*
%TO.C,J13*%
X136250000Y-123600000D03*
D11*
X134980000Y-123600000D03*
X136250000Y-122330000D03*
X134980000Y-122330000D03*
X136250000Y-121060000D03*
X134980000Y-121060000D03*
X136250000Y-119790000D03*
X134980000Y-119790000D03*
X136250000Y-118520000D03*
X134980000Y-118520000D03*
%TD*%
D18*
%TO.C,JP2*%
X178475000Y-126250000D03*
D19*
X177025000Y-126250000D03*
%TD*%
M02*
