M48
INCH,TZ
T1C0.0118
T2C0.0157
T3C0.0276
T4C0.0300
T5C0.0469
%
G90
G05
T1
X57795Y-43327
X57795Y-43681
X58149Y-43327
X58149Y-43681
T2
X38976Y-53642
X38976Y-55512
X40650Y-35138
X40650Y-38583
X40650Y-41929
X40748Y-51280
X40945Y-45472
X41585Y-55561
X41902Y-57016
X42618Y-35138
X42815Y-39567
X42815Y-41929
X42913Y-36909
X42913Y-38287
X43386Y-39032
X43799Y-45472
X43799Y-53346
X43898Y-49902
X44016Y-38387
X44291Y-32972
X44390Y-41043
X44508Y-37695
X44685Y-40157
X44882Y-34350
X44882Y-34774
X44980Y-56102
X45258Y-34268
X45638Y-34370
X45663Y-37652
X45768Y-40354
X45866Y-55807
X46018Y-34472
X46031Y-37586
X46358Y-38386
X46398Y-34573
X46575Y-46457
X46629Y-37618
X46654Y-40157
X46654Y-51280
X46689Y-36456
X46752Y-32972
X46752Y-52362
X47058Y-36633
X47115Y-38287
X47244Y-37106
X47343Y-35532
X47393Y-38905
X47470Y-39291
X47660Y-38086
X47776Y-40256
X47874Y-39774
X48130Y-52362
X48161Y-38365
X48228Y-37106
X48228Y-50098
X48487Y-38672
X48607Y-39026
X48622Y-33760
X48712Y-38339
X49016Y-38064
X50098Y-54429
X50098Y-55118
X50098Y-55807
X50098Y-56496
X50283Y-39449
X50284Y-35481
X50689Y-52756
X50787Y-46334
X50827Y-39626
X50984Y-32972
X50997Y-35672
X51106Y-36400
X51417Y-35672
X51969Y-46161
X51993Y-50074
X52165Y-55413
X52165Y-57087
X52205Y-39095
X52362Y-47244
X52894Y-39095
X53484Y-39095
X53543Y-44980
X53770Y-51841
X53839Y-36627
X53878Y-34474
X54075Y-38091
X54232Y-45472
X54232Y-50197
X54232Y-52953
X54252Y-36627
X54275Y-34346
X54291Y-46614
X55213Y-40836
X55512Y-46850
X55709Y-49606
X55977Y-46837
X56299Y-47707
X56398Y-51280
X56398Y-54331
X56496Y-49606
X56740Y-40564
X56809Y-43203
X56858Y-43636
X56963Y-42840
X57078Y-40364
X57087Y-57185
X57188Y-47215
X57241Y-42562
X57382Y-49606
X57465Y-40434
X57677Y-47215
X57946Y-46090
X58035Y-44754
X58083Y-37413
X58169Y-48002
X58169Y-49606
X58268Y-46457
X58268Y-46949
X58268Y-45071
X58366Y-33957
X58563Y-37402
X58858Y-49606
X58957Y-44291
X59050Y-44729
X59055Y-45209
X59252Y-35039
X59252Y-37487
X59547Y-42520
X59547Y-45276
X59547Y-47835
X59843Y-37439
X59941Y-33957
X60039Y-43504
X60270Y-45930
X60531Y-45079
X60531Y-51280
X60531Y-54331
X60550Y-46206
X60630Y-37402
X60630Y-41831
X61043Y-35039
X61220Y-37402
X61417Y-47539
X61418Y-43406
X61437Y-47146
X61713Y-33858
X61966Y-50356
X62303Y-38287
X62366Y-50367
X62795Y-37303
X62992Y-33858
X63091Y-39174
X63287Y-57283
X63484Y-33858
X63780Y-37205
X63780Y-38386
X63780Y-49213
X63976Y-35630
X64075Y-55312
X64173Y-41929
X64469Y-33957
X64567Y-47933
X64764Y-51378
X64862Y-46752
X65059Y-47146
X65059Y-51673
X65846Y-39469
X66732Y-48228
X66732Y-48720
X66757Y-53051
X66757Y-53642
X66929Y-55118
X67224Y-36122
X67323Y-41831
X67421Y-46260
X67421Y-51083
X67520Y-33563
X67520Y-34646
X67815Y-38091
X67913Y-36909
X67913Y-39567
X68110Y-51378
X68209Y-47736
X68307Y-36024
X68307Y-50000
X68406Y-57283
X68898Y-36024
X68898Y-48228
X69488Y-36024
X69488Y-49705
X69587Y-46161
X69783Y-47244
X69783Y-48524
X69882Y-50394
X69882Y-51575
X69980Y-37500
X70177Y-34646
X70177Y-47638
X70276Y-49705
X70374Y-38681
X70440Y-55709
X70472Y-40945
X70472Y-46161
X70472Y-47933
X70571Y-50591
X70571Y-54134
X70669Y-41831
X70669Y-46978
X70669Y-53583
X70768Y-32874
X71161Y-38878
X71161Y-39665
X71358Y-51870
X71654Y-33661
X71850Y-49114
X71949Y-48228
X71949Y-51870
X72441Y-34941
X72982Y-39026
X73031Y-36811
X73031Y-41831
X73130Y-49016
X73327Y-54429
X73425Y-38780
X73425Y-39665
X73425Y-57283
X74213Y-54921
X74508Y-40453
X75000Y-36024
X75000Y-38583
X75000Y-40157
X75197Y-41831
X75787Y-53445
X75787Y-57283
T3
X53142Y-46661
X53142Y-47161
X53142Y-47661
X53142Y-48161
X53142Y-48661
X53642Y-46661
X53642Y-47161
X53642Y-47661
X53642Y-48161
X53642Y-48661
X62205Y-46614
X62205Y-47114
X62205Y-47614
X62205Y-48114
X62205Y-48614
X62705Y-46614
X62705Y-47114
X62705Y-47614
X62705Y-48114
X62705Y-48614
X65600Y-33553
X65600Y-34053
X65600Y-34553
X65600Y-35053
X65600Y-35553
X66100Y-33553
X66100Y-34053
X66100Y-34553
X66100Y-35053
X66100Y-35553
T4
X45831Y-54016
X46831Y-54016
X46831Y-57016
X47831Y-54016
X48831Y-54016
T5
X40157Y-54118
X40157Y-55118
X40157Y-56118
X72925Y-47055
X72925Y-50681
X73925Y-47055
X73925Y-50681
T0
M30
